<svg fill="none" xmlns="http://www.w3.org/2000/svg" id="svg743995509_8328"><circle cx="94.134" cy="129.634" r="40.228" fill="#131313" fill-opacity=".89" stroke="url(#svg743995509_8328_a)" stroke-width=".813"/><g clip-path="url(#svg743995509_8328_b)"><path d="m78.166 114.908 12.132 16.221-12.208 13.189h2.747l10.689-11.547 8.636 11.547h9.35l-12.814-17.134 11.363-12.276h-2.748l-9.843 10.635-7.953-10.635h-9.35Zm4.041 2.024h4.296l18.968 25.362h-4.296l-18.968-25.362Z" fill="#fff"/></g><circle cx="187.865" cy="130.104" r="40.228" fill="#131313" fill-opacity=".89" stroke="url(#svg743995509_8328_c)" stroke-width=".813"/><g clip-path="url(#svg743995509_8328_d)"><path d="M192.808 130.456a11.172 11.172 0 0 1-.718 3.946 11.205 11.205 0 0 1-3.947.719h-.016a11.204 11.204 0 0 1-3.946-.718 11.183 11.183 0 0 1-.719-3.947v-.016c0-1.348.242-2.685.717-3.946 1.262-.476 2.6-.72 3.948-.719h.016a11.156 11.156 0 0 1 3.947.719c.476 1.261.719 2.598.718 3.945v.017Zm13.759-3.124h-10.91l7.714-7.715a18.77 18.77 0 0 0-2.019-2.387v-.001a18.837 18.837 0 0 0-2.387-2.017l-7.715 7.715v-10.911a18.678 18.678 0 0 0-3.105-.26h-.02c-1.058 0-2.095.09-3.105.26v10.911l-7.715-7.715a18.543 18.543 0 0 0-2.386 2.019l-.004.002a18.88 18.88 0 0 0-2.017 2.384l7.716 7.715h-10.91s-.261 2.05-.261 3.109v.013c0 1.06.09 2.098.261 3.109h10.91l-7.715 7.715a18.787 18.787 0 0 0 4.406 4.406l7.715-7.715v10.911c1.025.172 2.062.259 3.102.26h.026a18.858 18.858 0 0 0 3.102-.26v-10.911l7.716 7.715c.85-.605 1.648-1.28 2.386-2.018l.002-.002a18.828 18.828 0 0 0 2.017-2.386l-7.716-7.715h10.912c.17-1.009.259-2.044.26-3.102v-.027a18.774 18.774 0 0 0-.26-3.102Z" fill="#FF4A00"/></g><circle cx="281.865" cy="129.634" r="40.228" fill="#131313" fill-opacity=".89" stroke="url(#svg743995509_8328_e)" stroke-width=".813"/><g clip-path="url(#svg743995509_8328_f)"><mask id="svg743995509_8328_g" style="mask-type:luminance" maskUnits="userSpaceOnUse" x="262" y="114" width="40" height="31"><path d="M301.617 114.194h-39.529v30.622h39.529v-30.622Z" fill="#fff"/></mask><g mask="url(#svg743995509_8328_g)"><path d="M295.551 116.921a32.597 32.597 0 0 0-8.046-2.495.12.12 0 0 0-.129.061 22.395 22.395 0 0 0-1.002 2.058 30.085 30.085 0 0 0-9.037 0c-.27-.648-.669-1.44-1.018-2.058a.127.127 0 0 0-.129-.061 32.523 32.523 0 0 0-8.046 2.495.119.119 0 0 0-.053.046c-5.125 7.656-6.528 15.124-5.84 22.499a.137.137 0 0 0 .052.093c3.381 2.483 6.656 3.99 9.87 4.989a.128.128 0 0 0 .139-.045 23.453 23.453 0 0 0 2.019-3.285.125.125 0 0 0-.068-.174 21.595 21.595 0 0 1-3.084-1.47.126.126 0 0 1-.012-.21c.207-.155.414-.317.612-.48a.122.122 0 0 1 .128-.017c6.469 2.954 13.473 2.954 19.866 0a.122.122 0 0 1 .129.016c.198.163.405.326.614.481a.127.127 0 0 1-.011.21 20.29 20.29 0 0 1-3.085 1.469.126.126 0 0 0-.067.175 26.227 26.227 0 0 0 2.018 3.283.124.124 0 0 0 .138.047c3.23-.999 6.505-2.506 9.886-4.989a.126.126 0 0 0 .052-.091c.824-8.527-1.381-15.934-5.845-22.5a.106.106 0 0 0-.051-.047Zm-20.254 18.054c-1.947 0-3.552-1.788-3.552-3.984 0-2.196 1.573-3.984 3.552-3.984 1.995 0 3.584 1.804 3.553 3.984 0 2.196-1.574 3.984-3.553 3.984Zm13.135 0c-1.948 0-3.552-1.788-3.552-3.984 0-2.196 1.573-3.984 3.552-3.984 1.994 0 3.584 1.804 3.553 3.984 0 2.196-1.559 3.984-3.553 3.984Z" fill="#5865F2"/></g></g><circle cx="41.443" cy="41.141" r="40.265" fill="#131313" fill-opacity=".89" stroke="url(#svg743995509_8328_h)" stroke-width=".813"/><g clip-path="url(#svg743995509_8328_i)"><path d="M41.432 40.679a5.694 5.694 0 0 1 5.695-5.692 5.694 5.694 0 0 1 5.695 5.692 5.694 5.694 0 0 1-11.39 0Z" fill="#1ABCFE"/><path d="M30.055 52.049a5.694 5.694 0 0 1 5.695-5.692h5.695v5.692a5.694 5.694 0 0 1-5.695 5.691 5.686 5.686 0 0 1-5.695-5.691Z" fill="#0ACF83"/><path d="M41.432 23.618v11.37h5.695a5.694 5.694 0 0 0 5.695-5.691 5.694 5.694 0 0 0-5.695-5.692h-5.695v.013Z" fill="#FF7262"/><path d="M30.055 29.31A5.694 5.694 0 0 0 35.75 35h5.695V23.619H35.75a5.686 5.686 0 0 0-5.695 5.692Z" fill="#F24E1E"/><path d="M30.055 40.679a5.694 5.694 0 0 0 5.695 5.69h5.695V34.988H35.75a5.694 5.694 0 0 0-5.695 5.692Z" fill="#A259FF"/></g><circle cx="135.529" cy="40.672" r="40.265" fill="#131313" fill-opacity=".89" stroke="url(#svg743995509_8328_j)" stroke-width=".813"/><path d="m120.154 23.575 20.691-1.528c2.542-.218 3.195-.071 4.793 1.09l6.605 4.654c1.089.8 1.452 1.018 1.452 1.89v25.518c0 1.6-.581 2.545-2.614 2.69l-24.028 1.455c-1.525.072-2.252-.146-3.051-1.165l-4.864-6.324c-.872-1.164-1.234-2.036-1.234-3.054V26.118c0-1.308.581-2.398 2.25-2.543Z" fill="#fff"/><path d="m140.387 23.666-18.81 1.397c-1.518.132-2.046 1.128-2.046 2.323v20.723c0 .93.329 1.727 1.122 2.79l4.422 5.779c.726.93 1.387 1.13 2.774 1.063l21.843-1.329c1.847-.132 2.376-.996 2.376-2.457V30.64c0-.755-.296-.973-1.17-1.618l-.151-.109-6.003-4.251c-1.453-1.061-2.047-1.196-4.357-.997Zm-12.044 6.593c-1.784.12-2.189.148-3.202-.68l-2.575-2.059c-.262-.266-.13-.599.529-.665l18.083-1.328c1.518-.133 2.309.399 2.903.863l3.101 2.259c.133.067.463.464.066.464l-18.674 1.13-.231.016Zm-2.08 23.497V33.964c0-.865.264-1.264 1.055-1.33l21.448-1.262c.728-.067 1.057.398 1.057 1.261v19.66c0 .865-.133 1.596-1.321 1.662l-20.524 1.196c-1.188.066-1.715-.332-1.715-1.395Zm20.261-18.731c.131.598 0 1.196-.595 1.264l-.989.197v14.613c-.859.464-1.65.73-2.311.73-1.056 0-1.32-.333-2.111-1.328l-6.469-10.229v9.896l2.047.466s0 1.196-1.651 1.196l-4.552.265c-.133-.266 0-.93.461-1.062l1.189-.332V37.617l-1.65-.135c-.133-.598.197-1.46 1.122-1.528l4.883-.33 6.731 10.36v-9.166l-1.715-.198c-.133-.732.395-1.264 1.055-1.329l4.555-.266Z" fill="#000"/><circle cx="229.074" cy="40.672" r="40.265" fill="#131313" fill-opacity=".89" stroke="url(#svg743995509_8328_k)" stroke-width=".813"/><path fill-rule="evenodd" clip-rule="evenodd" d="M224.058 22.775a3.659 3.659 0 1 0 .001 7.32h3.661v-3.658a3.663 3.663 0 0 0-3.662-3.662c.001 0 .001 0 0 0Zm0 9.761h-9.76a3.66 3.66 0 1 0-.002 7.321h9.762a3.661 3.661 0 0 0 0-7.32Z" fill="#36C5F0"/><path fill-rule="evenodd" clip-rule="evenodd" d="M247.24 36.196a3.66 3.66 0 0 0-3.661-3.66 3.66 3.66 0 0 0-3.661 3.66v3.661h3.661a3.66 3.66 0 0 0 3.661-3.66Zm-9.761 0v-9.76a3.662 3.662 0 0 0-7.321 0v9.76a3.66 3.66 0 1 0 7.321 0Z" fill="#2EB67D"/><path fill-rule="evenodd" clip-rule="evenodd" d="M233.819 59.38a3.66 3.66 0 1 0 0-7.32h-3.661v3.66a3.663 3.663 0 0 0 3.661 3.66Zm0-9.763h9.761a3.661 3.661 0 0 0 .002-7.321h-9.761a3.66 3.66 0 1 0-.002 7.32Z" fill="#ECB22E"/><path fill-rule="evenodd" clip-rule="evenodd" d="M210.637 45.958a3.661 3.661 0 0 0 7.322 0v-3.66h-3.661a3.66 3.66 0 0 0-3.661 3.66Zm9.761 0v9.76a3.66 3.66 0 0 0 7.321.002v-9.76a3.661 3.661 0 0 0-7.321-.002Z" fill="#E01E5A"/><circle cx="322.619" cy="40.672" r="40.265" fill="#131313" fill-opacity=".89" stroke="url(#svg743995509_8328_l)" stroke-width=".813"/><defs><linearGradient id="svg743995509_8328_a" x1="55.898" y1="89" x2="111.739" y2="151.927" gradientUnits="userSpaceOnUse"><stop stop-color="#404040"/><stop offset="1" stop-color="#292929" stop-opacity="0"/></linearGradient><linearGradient id="svg743995509_8328_c" x1="149.629" y1="89.47" x2="205.47" y2="152.397" gradientUnits="userSpaceOnUse"><stop stop-color="#404040"/><stop offset="1" stop-color="#292929" stop-opacity="0"/></linearGradient><linearGradient id="svg743995509_8328_e" x1="243.629" y1="89" x2="299.47" y2="151.927" gradientUnits="userSpaceOnUse"><stop stop-color="#404040"/><stop offset="1" stop-color="#292929" stop-opacity="0"/></linearGradient><linearGradient id="svg743995509_8328_h" x1="3.172" y1=".47" x2="59.064" y2="63.455" gradientUnits="userSpaceOnUse"><stop stop-color="#404040"/><stop offset="1" stop-color="#292929" stop-opacity="0"/></linearGradient><linearGradient id="svg743995509_8328_j" x1="97.258" y1="0" x2="153.15" y2="62.985" gradientUnits="userSpaceOnUse"><stop stop-color="#404040"/><stop offset="1" stop-color="#292929" stop-opacity="0"/></linearGradient><linearGradient id="svg743995509_8328_k" x1="190.803" y1="0" x2="246.695" y2="62.985" gradientUnits="userSpaceOnUse"><stop stop-color="#404040"/><stop offset="1" stop-color="#292929" stop-opacity="0"/></linearGradient><linearGradient id="svg743995509_8328_l" x1="284.348" y1="0" x2="340.24" y2="62.985" gradientUnits="userSpaceOnUse"><stop stop-color="#404040"/><stop offset="1" stop-color="#292929" stop-opacity="0"/></linearGradient><clipPath id="svg743995509_8328_b"><path fill="#fff" transform="translate(77.61 114.193)" d="M0 0h32.508v30.84H0z"/></clipPath><clipPath id="svg743995509_8328_d"><path fill="#fff" transform="translate(169.443 111.756)" d="M0 0h37.384v37.384H0z"/></clipPath><clipPath id="svg743995509_8328_f"><path fill="#fff" transform="translate(262.09 114.193)" d="M0 0h39.529v30.621H0z"/></clipPath><clipPath id="svg743995509_8328_i"><path fill="#fff" transform="translate(30.055 23.59)" d="M0 0h22.776v34.166H0z"/></clipPath></defs></svg>