<svg viewBox="0 0 100 100" fill="none" xmlns="http://www.w3.org/2000/svg" id="svg-1474529056_6308"><circle cx="50" cy="50" r="49" fill="#131313" fill-opacity="0.89" stroke="url(#svg-1474529056_6308_paint0_linear_666_3302)" stroke-width="2"/><g clip-path="url(#svg-1474529056_6308_clip0_666_3302)"><path d="M49.6543 27.2497C37.4721 27.4356 27.5146 37.3318 27.2499 49.5206C27.1572 53.6203 28.1794 57.6683 30.2074 61.2325C30.2871 61.3718 30.4035 61.4865 30.544 61.5641C30.6845 61.6417 30.8436 61.6791 31.004 61.6724C31.1643 61.6656 31.3197 61.6148 31.4531 61.5257C31.5866 61.4365 31.6929 61.3124 31.7606 61.1668C33.4035 57.6775 34.2529 53.8674 34.2477 50.0106C34.2439 47.6483 34.7732 45.3155 35.7962 43.1861C36.8192 41.0568 38.3095 39.1858 40.1562 37.7125C40.3373 37.5708 40.5445 37.4663 40.7661 37.4048C40.9876 37.3432 41.2191 37.3259 41.4473 37.3539C41.6755 37.3818 41.896 37.4544 42.0961 37.5675C42.2963 37.6807 42.4722 37.8321 42.6138 38.0132C42.7555 38.1944 42.86 38.4016 42.9215 38.6231C42.9831 38.8447 43.0004 39.0762 42.9724 39.3044C42.9445 39.5326 42.8719 39.7531 42.7588 39.9532C42.6456 40.1534 42.4942 40.3293 42.3131 40.4709C40.8855 41.6178 39.7341 43.071 38.9443 44.7231C38.1544 46.3752 37.7462 48.1838 37.7499 50.015C37.7557 55.2687 36.3627 60.4293 33.714 64.9665C33.6158 65.1332 33.5757 65.3278 33.5998 65.5198C33.6239 65.7117 33.711 65.8903 33.8474 66.0275C34.2849 66.465 34.7421 66.9025 35.2146 67.3006C35.3115 67.3819 35.4248 67.4413 35.5468 67.4747C35.6688 67.508 35.7965 67.5145 35.9213 67.4937C36.046 67.4729 36.1648 67.4253 36.2694 67.3542C36.374 67.2831 36.4619 67.1902 36.5271 67.0818C38.4637 63.8669 39.8388 60.3458 40.5937 56.6693C40.6862 56.2145 40.9556 55.815 41.3427 55.5588C41.7298 55.3027 42.2027 55.2107 42.6576 55.3032C43.1124 55.3958 43.5119 55.6652 43.7681 56.0523C44.0243 56.4393 44.1162 56.9123 44.0237 57.3672C43.1775 61.5155 41.618 65.4856 39.4146 69.1009C39.3525 69.2037 39.3122 69.3182 39.2962 69.4372C39.2802 69.5562 39.2889 69.6773 39.3217 69.7928C39.3546 69.9083 39.4108 70.0159 39.487 70.1087C39.5632 70.2016 39.6577 70.2777 39.7646 70.3325C40.3049 70.6059 40.8584 70.8597 41.4206 71.0915C41.6147 71.1747 41.8323 71.1849 42.0333 71.1201C42.2344 71.0554 42.4052 70.9202 42.5143 70.7393C46.2725 64.497 48.2556 57.3473 48.2499 50.0609C48.2454 49.6117 48.4105 49.1773 48.7122 48.8444C49.0138 48.5115 49.4299 48.3046 49.8774 48.265C50.1173 48.2481 50.3581 48.2809 50.5848 48.3613C50.8115 48.4417 51.0191 48.5679 51.1948 48.7321C51.3705 48.8963 51.5105 49.095 51.606 49.3157C51.7015 49.5364 51.7505 49.7745 51.7499 50.015C51.7586 57.4545 49.8599 64.772 46.2352 71.2687C46.1655 71.3931 46.1272 71.5327 46.1237 71.6754C46.1202 71.818 46.1517 71.9593 46.2153 72.0869C46.2789 72.2146 46.3728 72.3248 46.4887 72.4079C46.6047 72.491 46.7392 72.5445 46.8806 72.5637C47.5441 72.6556 48.2157 72.7183 48.8952 72.7518C49.0586 72.7579 49.2204 72.7181 49.3623 72.6369C49.5042 72.5557 49.6205 72.4364 49.6981 72.2925C53.3361 65.4873 55.2428 57.8912 55.2499 50.1747C55.2609 47.2762 52.9968 44.8175 50.1006 44.7628C49.4038 44.7494 48.7114 44.8749 48.0636 45.1319C47.4158 45.389 46.8257 45.7724 46.3277 46.2598C45.8297 46.7473 45.4337 47.329 45.1628 47.9711C44.8919 48.6132 44.7515 49.3028 44.7499 49.9997C44.7467 50.4367 44.5821 50.8571 44.2878 51.1801C43.9934 51.5031 43.5901 51.706 43.1552 51.7497C42.9127 51.7713 42.6683 51.742 42.4378 51.6638C42.2072 51.5856 41.9955 51.4601 41.8161 51.2954C41.6368 51.1307 41.4938 50.9304 41.3963 50.7073C41.2988 50.4841 41.249 50.2431 41.2499 49.9997C41.2499 48.8428 41.4792 47.6974 41.9247 46.6298C42.3701 45.5622 43.0229 44.5935 43.8451 43.7798C44.6674 42.966 45.6429 42.3234 46.7151 41.8892C47.7873 41.4549 48.935 41.2375 50.0918 41.2497C54.9043 41.3 58.7718 45.4431 58.7477 50.2534C58.7264 57.3884 57.1967 64.4384 54.259 70.9406C54.1922 71.0904 54.1689 71.2559 54.1917 71.4183C54.2144 71.5806 54.2823 71.7334 54.3877 71.859C54.4931 71.9847 54.6316 72.0782 54.7875 72.1289C54.9435 72.1796 55.1105 72.1855 55.2696 72.1459C56.0285 71.966 56.7777 71.7469 57.514 71.4897C57.6288 71.4489 57.7337 71.3847 57.8223 71.3011C57.9108 71.2175 57.9809 71.1163 58.0281 71.004C59.0467 68.5899 59.8861 66.104 60.5393 63.5665C60.5968 63.3439 60.6975 63.1348 60.8358 62.9511C60.9741 62.7674 61.1472 62.6127 61.3452 62.4959C61.5433 62.3791 61.7624 62.3025 61.99 62.2703C62.2177 62.2382 62.4495 62.2513 62.6721 62.3087C62.8947 62.3662 63.1039 62.4669 63.2876 62.6052C63.4713 62.7435 63.6259 62.9166 63.7427 63.1146C63.8595 63.3127 63.9362 63.5318 63.9683 63.7595C64.0004 63.9871 63.9874 64.2189 63.9299 64.4415C63.7666 65.0788 63.5916 65.7132 63.4049 66.3447C63.35 66.5265 63.3557 66.7212 63.4212 66.8995C63.4867 67.0778 63.6084 67.2299 63.768 67.3329C63.9276 67.4359 64.1163 67.4842 64.3057 67.4705C64.4952 67.4568 64.675 67.3818 64.8181 67.2568C68.3655 64.2106 70.8882 60.1453 72.0427 55.6142C73.1972 51.0831 72.9275 46.3063 71.2702 41.934C69.613 37.5616 66.6488 33.8061 62.7809 31.1786C58.9131 28.5511 54.3296 27.1792 49.6543 27.2497ZM65.3124 57.2359C65.2592 57.6582 65.054 58.0466 64.7351 58.3284C64.4162 58.6103 64.0055 58.7662 63.5799 58.7672C63.5068 58.7671 63.4338 58.7628 63.3612 58.754C63.1331 58.7256 62.9128 58.6526 62.7129 58.539C62.5131 58.4255 62.3375 58.2737 62.1963 58.0923C62.0552 57.9109 61.9511 57.7034 61.8901 57.4818C61.8291 57.2602 61.8124 57.0287 61.8409 56.8006C62.1199 54.5509 62.2601 52.2862 62.2609 50.0193C62.2562 46.7719 60.9641 43.6587 58.6678 41.3624C56.3715 39.0661 53.2583 37.774 50.0109 37.7693C49.499 37.7691 48.9876 37.8005 48.4796 37.8634C48.0187 37.9214 47.5536 37.794 47.1866 37.509C46.8197 37.2241 46.5809 36.8051 46.5229 36.3442C46.4649 35.8832 46.5923 35.4181 46.8773 35.0512C47.1622 34.6842 47.5812 34.4455 48.0421 34.3875C50.2595 34.1116 52.5102 34.3101 54.6451 34.9698C56.78 35.6294 58.7503 36.7352 60.4256 38.2138C62.1009 39.6924 63.4429 41.5101 64.3627 43.5465C65.2825 45.5828 65.7591 47.7914 65.7609 50.0259C65.7603 52.4362 65.6106 54.8441 65.3124 57.2359Z" fill="#BDFF02"/></g><defs><linearGradient id="svg-1474529056_6308_paint0_linear_666_3302" x1="2.95082" y1="4.59911e-07" x2="71.6624" y2="77.4311" gradientUnits="userSpaceOnUse"><stop stop-color="#292929"/><stop offset="1" stop-color="#292929" stop-opacity="0"/></linearGradient><clipPath id="svg-1474529056_6308_clip0_666_3302"><rect width="56" height="56" fill="white" transform="translate(22 22)"/></clipPath></defs></svg>