<svg viewBox="0 0 100 100" fill="none" xmlns="http://www.w3.org/2000/svg" id="svg-1542226651_2912"><circle cx="50" cy="50" r="49" fill="#131313" fill-opacity="0.89" stroke="url(#svg-1542226651_2912_paint0_linear_666_3283)" stroke-width="2"/><g clip-path="url(#svg-1542226651_2912_clip0_666_3283)"><path d="M72.2884 37.8045C71.9688 37.2463 71.5009 36.7875 70.9366 36.4788L51.68 25.9373C51.1653 25.6543 50.5874 25.5059 50 25.5059C49.4126 25.5059 48.8347 25.6543 48.32 25.9373L29.07 36.4766C28.5057 36.7853 28.0378 37.2441 27.7181 37.8023C27.4134 38.3306 27.2521 38.9293 27.25 39.5391V60.4604C27.2514 61.087 27.4211 61.7018 27.7412 62.2405C28.0614 62.7792 28.5203 63.2221 29.07 63.5229L48.32 74.0601C48.8343 74.3443 49.4124 74.4933 50 74.4933C50.5876 74.4933 51.1657 74.3443 51.68 74.0601L70.93 63.5229C71.4797 63.2221 71.9386 62.7792 72.2588 62.2405C72.5789 61.7018 72.7486 61.087 72.75 60.4604V39.5391C72.7496 38.9306 72.5905 38.3327 72.2884 37.8045ZM48.25 70.0395L41.25 66.207V55.2498C41.2493 54.9364 41.1645 54.629 41.0044 54.3597C40.8443 54.0903 40.6149 53.8689 40.34 53.7185L30.75 48.4685V41.4685L48.25 51.0498V70.0395ZM50 48.0048L32.6444 38.5023L40.1869 34.3745L49.1556 39.2854C49.4132 39.4263 49.702 39.5002 49.9956 39.5002C50.2892 39.5002 50.5781 39.4263 50.8356 39.2854L59.8044 34.3745L67.3469 38.5023L50 48.0048ZM69.25 48.4641L59.66 53.7141C59.3851 53.8645 59.1557 54.086 58.9956 54.3553C58.8355 54.6247 58.7507 54.9321 58.75 55.2454V66.2026L51.75 70.0351V51.0366L69.25 41.4554V48.4641Z" fill="#BDFF02"/><path d="M70.6965 36.9174L70.6966 36.9175C71.1799 37.1818 71.5806 37.5747 71.8544 38.0526C72.1133 38.5054 72.2496 39.0179 72.25 39.5395V60.4593C72.2488 60.9964 72.1034 61.5233 71.829 61.9851C71.5546 62.4468 71.1612 62.8264 70.69 63.0843L70.6899 63.0843L51.4399 73.6215L51.4382 73.6224C50.9979 73.8657 50.5031 73.9933 50 73.9933C49.4969 73.9933 49.0021 73.8657 48.5618 73.6224L48.5601 73.6215L29.3101 63.0843L29.31 63.0843C28.8388 62.8264 28.4454 62.4468 28.171 61.9851C27.8967 61.5235 27.7513 60.9967 27.75 60.4598V39.54C27.7519 39.0176 27.8902 38.5047 28.1512 38.0521L28.152 38.0507C28.4258 37.5727 28.8266 37.1797 29.3099 36.9153L29.3101 36.9152L48.5601 26.3758L48.5609 26.3754C49.0018 26.133 49.4968 26.0059 50 26.0059C50.5032 26.0059 50.9982 26.133 51.4391 26.3754L51.4399 26.3758L70.6965 36.9174Z" stroke="url(#svg-1542226651_2912_paint1_linear_666_3283)"/></g><defs><linearGradient id="svg-1542226651_2912_paint0_linear_666_3283" x1="2.95082" y1="4.59911e-07" x2="71.6624" y2="77.4311" gradientUnits="userSpaceOnUse"><stop stop-color="#292929"/><stop offset="1" stop-color="#292929" stop-opacity="0"/></linearGradient><linearGradient id="svg-1542226651_2912_paint1_linear_666_3283" x1="40" y1="28.5" x2="58" y2="61" gradientUnits="userSpaceOnUse"><stop stop-color="#EEFFB5"/><stop offset="1" stop-color="#6DF502" stop-opacity="0"/></linearGradient><clipPath id="svg-1542226651_2912_clip0_666_3283"><rect width="56" height="56" fill="white" transform="translate(22 22)"/></clipPath></defs></svg>