<svg width="81" height="24" viewBox="0 0 81 24" fill="none" xmlns="http://www.w3.org/2000/svg">
<path d="M20 4.00006V9.3334L14.6667 14.6667V9.3334H9.33333V12.8545C9.33333 13.8556 10.1444 14.6667 11.1455 14.6667H14.6667L9.33333 20.0001C6.38777 20.0001 3.99999 17.6123 3.99999 14.6667V4.00006H20Z" fill="url(#paint0_linear_1265_2075)"/>
<path d="M20 14.6667L14.6667 14.6667L14.6667 20.0001H20V14.6667Z" fill="url(#paint1_linear_1265_2075)"/>
<path d="M36.2668 16.1059L38.049 17.9787H35.4L34.66 17.2097C33.5178 17.7523 32.1942 18.0001 30.9179 18.0001C27.576 18.0001 24 16.4025 24 11.9907C24 7.57895 27.576 6.0001 30.9198 6.0001C34.2635 6.0001 37.8225 7.59584 37.8225 11.9907C37.8225 13.8174 37.2108 15.1503 36.2668 16.1059ZM33.0892 15.5464L30.7725 13.0946H33.4215L34.5298 14.2642C34.9111 13.639 35.1094 12.8487 35.1094 11.9926C35.1094 9.7379 33.801 8.00886 30.9217 8.00886C28.0424 8.00886 26.732 9.73602 26.732 11.9907C26.732 14.2454 28.0405 15.9913 30.9198 15.9913C31.7807 15.9913 32.5095 15.8261 33.0892 15.5464Z" fill="#2C2C2C"/>
<path d="M38.8402 14.7899V8.97952H41.357V14.1648C41.357 15.2179 41.9687 16.1228 43.5264 16.1228C45.084 16.1228 45.777 15.1842 45.777 14.1648V8.97952H48.2937V18.0001H45.777V16.5171C45.3956 17.0446 44.3194 17.9983 42.4332 17.9983C40.1656 17.9983 38.8402 16.763 38.8402 14.788V14.7899Z" fill="#2C2C2C"/>
<path d="M51.411 14.0163C51.6092 15.2178 52.4532 16.271 54.2921 16.271C55.6327 16.271 56.4936 15.6778 56.841 14.9381H59.0595C58.4799 17.1271 56.4766 18.0001 54.2921 18.0001C51.7754 18.0001 49.1434 16.6184 49.1434 13.3743C49.1434 10.1302 51.7433 8.74851 54.2752 8.74851C56.8071 8.74851 59.507 10.3123 59.2408 14.0163H51.411ZM51.494 12.3699H56.9411C56.6768 11.3167 55.931 10.4607 54.2752 10.4607C52.6193 10.4607 51.8244 11.3167 51.494 12.3699Z" fill="#2C2C2C"/>
<path d="M69.7685 15.1033C69.7685 17.1121 68.0466 18.0001 64.852 18.0001C61.6573 18.0001 59.8033 17.0295 59.8033 15.0545H62.5353C62.5353 15.9275 63.5775 16.3048 65.0181 16.3048C66.4587 16.3048 67.1875 16.042 67.1875 15.3662C67.1875 14.5758 66.0943 14.4782 63.7437 14.0821C61.41 13.7028 60.1507 13.2091 60.1507 11.465C60.1507 9.72098 61.7234 8.74851 64.7028 8.74851C67.6822 8.74851 69.3701 9.9012 69.3701 11.5138H66.8382C66.8382 10.9544 66.1925 10.3949 64.6688 10.3949C63.2943 10.3949 62.5504 10.6747 62.5504 11.3486C62.5504 12.1052 64.0231 12.1878 65.5959 12.4675C68.0787 12.8956 69.7666 13.0758 69.7666 15.1015L69.7685 15.1033Z" fill="#2C2C2C"/>
<path d="M74.2172 10.784V14.4711C74.2172 15.9036 74.7477 16.1833 76.8 15.9693V17.8466C76.4696 17.8954 76.0712 17.978 75.4916 17.978C72.314 17.978 71.7004 16.6113 71.7004 14.4223V10.784H70.0615V9.07189H71.7004V6.8003H74.2172V9.07189H76.8V10.784H74.2172Z" fill="#2C2C2C"/>
<defs>
<linearGradient id="paint0_linear_1265_2075" x1="20" y1="4.00006" x2="3.11999" y2="20.0001" gradientUnits="userSpaceOnUse">
<stop stop-color="#3542FF"/>
<stop offset="1" stop-color="#9035FF"/>
</linearGradient>
<linearGradient id="paint1_linear_1265_2075" x1="20" y1="4.00006" x2="3.11999" y2="20.0001" gradientUnits="userSpaceOnUse">
<stop stop-color="#3542FF"/>
<stop offset="1" stop-color="#9035FF"/>
</linearGradient>
</defs>
</svg>
