<svg fill="none" xmlns="http://www.w3.org/2000/svg" id="svg454361139_14525"><path stroke="url(#svg454361139_14525_a)" stroke-opacity=".18" stroke-width="1.55" stroke-dasharray="3.62 3.62" d="M66.125 114.725h132.611"/><path stroke="url(#svg454361139_14525_b)" stroke-opacity=".18" stroke-width="1.55" stroke-dasharray="3.62 3.62" d="M66.125 176.725h132.611"/><path stroke="url(#svg454361139_14525_c)" stroke-opacity=".18" stroke-width="1.55" stroke-dasharray="3.62 3.62" d="M66.125 130.225h132.611"/><path stroke="url(#svg454361139_14525_d)" stroke-opacity=".18" stroke-width="1.55" stroke-dasharray="3.62 3.62" d="M66.125 145.725h213.986"/><path stroke="url(#svg454361139_14525_e)" stroke-opacity=".18" stroke-width="1.55" stroke-dasharray="3.62 3.62" d="M66.125 161.225h213.986"/><path stroke="url(#svg454361139_14525_f)" stroke-opacity=".18" stroke-width="1.55" stroke-dasharray="3.62 3.62" d="M66.125 99.225h213.986"/><path stroke="url(#svg454361139_14525_g)" stroke-opacity=".18" stroke-width="1.55" stroke-dasharray="3.62 3.62" d="M4.125 192.225h213.986"/><rect x="16.814" y="1.814" width="245.671" height="74.678" rx="15.186" fill="#131313" stroke="url(#svg454361139_14525_h)" stroke-width="1.629"/><rect x="29.926" y="13.81" width="72.965" height="50.685" rx="17.823" fill="#000" fill-opacity=".89"/><g opacity=".4" clip-path="url(#svg454361139_14525_i)"><path d="M76.269 31.134v4.886a.814.814 0 0 1-.815.815h-4.886a.814.814 0 0 1-.576-1.39l2.095-2.096c-1.324-1.11-3.232-2.215-5.591-2.215-3.693 0-5.918 2.182-5.94 2.205a.815.815 0 1 1-1.152-1.153c.11-.108 2.733-2.681 7.092-2.681 2.378 0 4.696.926 6.747 2.689l1.635-1.637a.814.814 0 0 1 1.391.577Zm-3.834 14.083c-.021.023-2.247 2.205-5.94 2.205-2.358 0-4.267-1.104-5.59-2.215L63 43.112a.814.814 0 0 0-.576-1.39h-4.887a.814.814 0 0 0-.814.814v4.886a.813.813 0 0 0 1.39.577l1.635-1.636c2.052 1.762 4.37 2.688 6.748 2.688 4.359 0 6.982-2.572 7.092-2.681a.815.815 0 0 0-1.153-1.153Z" fill="#fff"/></g><circle cx="120.248" cy="19.66" r="3.258" fill="#fff" fill-opacity=".4"/><path d="M127.472 22.66v-5.782h2.085c.532 0 .956.154 1.271.464.32.304.48.698.48 1.18 0 .408-.114.745-.342 1.01-.222.261-.546.438-.969.53l2.15 2.598h-1.173l-2.117-2.54h-.432v2.54h-.953Zm.953-3.372h1.018c.282 0 .505-.065.668-.195.163-.136.244-.326.244-.57 0-.244-.081-.432-.244-.562-.163-.136-.386-.204-.668-.204h-1.018v1.531Zm4.785 3.372v-5.782h3.478v.912h-2.525v1.482h2.036v.912h-2.036v1.564h2.525v.912h-3.478Zm6.829 0-2.427-5.782h1.043l1.8 4.324 1.791-4.324h1.051l-2.427 5.782h-.831Zm4.504 0v-5.782h.953v5.782h-.953Zm2.859 0v-5.782h3.477v.912h-2.525v1.482h2.037v.912h-2.037v1.564h2.525v.912h-3.477Zm9.582 0-1.344-3.535-1.344 3.535h-.88l-1.49-5.782h1.002l1.05 4.202 1.662-4.3 1.653 4.3 1.059-4.202h1.01l-1.499 5.782h-.879Zm3.731 0v-5.782h3.477v.912h-2.524v1.482h2.036v.912h-2.036v1.564h2.524v.912h-3.477Zm5.062 0v-5.782h1.775c.858 0 1.577.277 2.158.83.581.554.872 1.241.872 2.06 0 .82-.291 1.508-.872 2.061-.581.554-1.3.831-2.158.831h-1.775Zm.952-.888h.823c.608 0 1.102-.19 1.482-.57.386-.38.578-.858.578-1.433 0-.576-.192-1.053-.578-1.433-.38-.38-.874-.57-1.482-.57h-.823v4.006Z" fill="#fff" fill-opacity=".4"/><rect x="114.547" y="31.948" width="100.175" height="9.773" rx="4.887" fill="#D9D9D9" fill-opacity=".09"/><rect x="114.547" y="49.866" width="51.309" height="9.773" rx="4.887" fill="#D9D9D9" fill-opacity=".09"/><rect x="1" y="39" width="278" height="92" rx="21" fill="#131313" stroke="url(#svg454361139_14525_j)" stroke-width="2"/><path d="M123.347 89.51V74.945h1.908v12.761h7.037v1.806h-8.945Zm14.694.206c-1.423 0-2.62-.52-3.591-1.56-.957-1.039-1.436-2.297-1.436-3.775 0-1.477.479-2.735 1.436-3.775.971-1.04 2.168-1.559 3.591-1.559.752 0 1.45.171 2.092.513.657.328 1.163.752 1.519 1.272v-1.58h1.764v10.259h-1.764v-1.58c-.356.52-.862.95-1.519 1.293a4.53 4.53 0 0 1-2.092.492Zm.266-1.62c1.013 0 1.847-.356 2.504-1.068.656-.711.984-1.593.984-2.647 0-1.053-.328-1.935-.984-2.646-.657-.711-1.491-1.067-2.504-1.067-1.025 0-1.867.356-2.523 1.067-.657.711-.985 1.593-.985 2.647 0 1.053.328 1.935.985 2.646.656.712 1.498 1.067 2.523 1.067Zm12.206 1.517c-.944 0-1.703-.266-2.278-.8-.574-.533-.862-1.313-.862-2.339v-5.6h-2.174v-1.622h2.174V76.4h1.765v2.852h2.954v1.621h-2.954v5.376c0 .642.137 1.094.41 1.354.274.26.705.39 1.293.39.52 0 .937-.069 1.251-.206v1.58a4.96 4.96 0 0 1-1.579.246Zm7.858.103c-1.491 0-2.729-.506-3.714-1.518-.971-1.012-1.456-2.284-1.456-3.816 0-1.546.472-2.818 1.415-3.817.958-1.012 2.223-1.518 3.796-1.518 1.587 0 2.831.561 3.734 1.683.903 1.121 1.299 2.496 1.19 4.123h-8.35c.027.93.369 1.71 1.026 2.34.656.615 1.449.923 2.379.923 1.396 0 2.387-.575 2.975-1.724h1.806c-.26.958-.814 1.751-1.662 2.38-.848.63-1.894.944-3.139.944Zm2.011-8.37c-.561-.493-1.238-.74-2.032-.74a3.43 3.43 0 0 0-2.133.719c-.616.478-.999 1.19-1.149 2.133h6.401c-.164-.93-.527-1.634-1.087-2.113Zm8.598 8.37c-1.149 0-2.113-.28-2.893-.841-.766-.561-1.19-1.34-1.272-2.34h1.806c.109.575.383 1 .82 1.273.452.273.972.41 1.56.41.588 0 1.06-.116 1.415-.349.37-.232.554-.567.554-1.005 0-.41-.136-.745-.41-1.005-.26-.26-.691-.472-1.293-.636l-1.477-.39c-1.764-.465-2.646-1.47-2.646-3.016 0-.834.328-1.505.984-2.01.671-.507 1.525-.76 2.565-.76 1.053 0 1.915.28 2.585.841.684.547 1.067 1.245 1.149 2.093h-1.764a1.996 1.996 0 0 0-.739-1.067c-.342-.26-.752-.39-1.231-.39-.506 0-.93.117-1.272.35-.328.232-.492.54-.492.922 0 .37.123.67.369.903.246.233.643.424 1.19.575l1.641.43c1.751.438 2.626 1.45 2.626 3.037 0 .985-.348 1.73-1.046 2.236-.698.493-1.607.739-2.729.739Zm9.889-.103c-.944 0-1.703-.266-2.277-.8-.575-.533-.862-1.313-.862-2.339v-5.6h-2.175v-1.622h2.175V76.4h1.764v2.852h2.955v1.621h-2.955v5.376c0 .642.137 1.094.411 1.354.273.26.704.39 1.292.39.52 0 .937-.069 1.252-.206v1.58a4.966 4.966 0 0 1-1.58.246Zm12.599.103c-1.423 0-2.62-.52-3.591-1.56-.957-1.039-1.436-2.297-1.436-3.775 0-1.477.479-2.735 1.436-3.775.971-1.04 2.168-1.559 3.591-1.559.752 0 1.45.171 2.092.513.657.328 1.163.752 1.519 1.272v-6.709h1.764v15.388h-1.764v-1.58c-.356.52-.862.95-1.519 1.293a4.53 4.53 0 0 1-2.092.492Zm.266-1.62c1.013 0 1.847-.356 2.504-1.068.656-.711.984-1.593.984-2.647 0-1.053-.328-1.935-.984-2.646-.657-.711-1.491-1.067-2.504-1.067-1.025 0-1.867.356-2.523 1.067-.657.711-.985 1.593-.985 2.647 0 1.053.328 1.935.985 2.646.656.712 1.498 1.067 2.523 1.067Zm12.595 1.62c-1.491 0-2.728-.506-3.713-1.518-.971-1.012-1.457-2.284-1.457-3.816 0-1.546.472-2.818 1.416-3.817.957-1.012 2.222-1.518 3.795-1.518 1.587 0 2.832.561 3.734 1.683.903 1.121 1.3 2.496 1.19 4.123h-8.35c.027.93.369 1.71 1.026 2.34.656.615 1.45.923 2.38.923 1.395 0 2.387-.575 2.975-1.724h1.805c-.26.958-.814 1.751-1.662 2.38-.848.63-1.894.944-3.139.944Zm2.011-8.37c-.561-.493-1.238-.74-2.031-.74-.793 0-1.505.24-2.134.719-.615.478-.998 1.19-1.149 2.133h6.401c-.164-.93-.526-1.634-1.087-2.113Zm8.599 8.37c-1.149 0-2.114-.28-2.893-.841-.766-.561-1.19-1.34-1.272-2.34h1.805c.11.575.383 1 .821 1.273.451.273.971.41 1.559.41s1.06-.116 1.416-.349a1.12 1.12 0 0 0 .554-1.005c0-.41-.137-.745-.411-1.005-.259-.26-.69-.472-1.292-.636l-1.477-.39c-1.765-.465-2.647-1.47-2.647-3.016 0-.834.328-1.505.985-2.01.67-.507 1.525-.76 2.564-.76 1.054 0 1.915.28 2.586.841.683.547 1.066 1.245 1.148 2.093h-1.764a1.996 1.996 0 0 0-.739-1.067c-.342-.26-.752-.39-1.231-.39-.506 0-.93.117-1.272.35-.328.232-.492.54-.492.922 0 .37.123.67.369.903.246.233.643.424 1.19.575l1.642.43c1.75.438 2.626 1.45 2.626 3.037 0 .985-.349 1.73-1.047 2.236-.697.493-1.607.739-2.728.739Zm7.853-13.562a1.194 1.194 0 0 1-.882.35c-.355 0-.656-.117-.903-.35a1.228 1.228 0 0 1-.369-.902c0-.342.123-.636.369-.883a1.23 1.23 0 0 1 .903-.369c.356 0 .65.123.882.37.233.245.349.54.349.882 0 .355-.116.656-.349.902Zm-1.785 13.357V79.252h1.765v10.259h-1.765Zm9.418 4.493c-1.354 0-2.482-.335-3.385-1.005-.889-.657-1.416-1.505-1.58-2.544h1.723c.452 1.326 1.546 1.99 3.283 1.99.971 0 1.751-.315 2.339-.944.602-.616.903-1.484.903-2.606v-1.21a3.998 3.998 0 0 1-1.498 1.313 4.41 4.41 0 0 1-2.072.492c-1.436 0-2.633-.499-3.591-1.497-.957-1.013-1.436-2.257-1.436-3.735 0-1.463.479-2.694 1.436-3.693.972-1.012 2.168-1.518 3.591-1.518a4.41 4.41 0 0 1 2.072.493c.629.328 1.129.759 1.498 1.292v-1.58h1.764v9.623c0 1.641-.478 2.906-1.436 3.795-.944.89-2.147 1.334-3.611 1.334Zm-2.544-7.16c.643.67 1.477 1.005 2.503 1.005s1.86-.335 2.503-1.005c.643-.684.964-1.546.964-2.586 0-1.04-.328-1.894-.984-2.564-.643-.684-1.471-1.026-2.483-1.026s-1.846.342-2.503 1.026c-.643.67-.964 1.525-.964 2.564 0 1.04.321 1.902.964 2.586Zm10.708 2.667V79.252h1.765v1.58c.697-1.19 1.785-1.785 3.262-1.785 1.163 0 2.1.376 2.811 1.129.711.752 1.067 1.757 1.067 3.016v6.319h-1.744v-6.053c0-.861-.219-1.538-.657-2.03-.437-.507-1.026-.76-1.764-.76-.848 0-1.56.335-2.134 1.005-.561.67-.841 1.587-.841 2.75v5.088h-1.765Z" fill="#fff"/><path d="M124.568 111.183v-8.372h-2.884v-1.568h7.42v1.568h-2.898v8.372h-1.638Zm9.92-.91c-.7.7-1.568 1.05-2.604 1.05s-1.909-.35-2.618-1.05c-.7-.71-1.05-1.573-1.05-2.59 0-1.018.35-1.876 1.05-2.576.709-.71 1.582-1.064 2.618-1.064 1.036 0 1.904.354 2.604 1.064.709.7 1.064 1.558 1.064 2.576 0 1.017-.355 1.88-1.064 2.59Zm-2.604-.378c.606 0 1.106-.21 1.498-.63.401-.43.602-.957.602-1.582 0-.626-.201-1.148-.602-1.568-.392-.43-.892-.644-1.498-.644-.616 0-1.125.214-1.526.644-.392.42-.588.942-.588 1.568 0 .625.196 1.152.588 1.582.401.42.91.63 1.526.63Zm7.666 1.428c-.952 0-1.754-.355-2.408-1.064-.644-.71-.966-1.568-.966-2.576s.322-1.867.966-2.576c.654-.71 1.456-1.064 2.408-1.064.476 0 .915.107 1.316.322.402.205.71.457.924.756v-4.438h1.54v10.5h-1.54v-.938c-.214.298-.522.555-.924.77a2.85 2.85 0 0 1-1.316.308Zm-1.218-2.044c.392.429.892.644 1.498.644.607 0 1.106-.215 1.498-.644.392-.43.588-.962.588-1.596 0-.635-.196-1.167-.588-1.596-.392-.43-.891-.644-1.498-.644-.606 0-1.106.214-1.498.644-.392.429-.588.961-.588 1.596 0 .634.196 1.166.588 1.596Zm9.535 2.044c-.952 0-1.755-.355-2.408-1.064-.644-.71-.966-1.568-.966-2.576s.322-1.867.966-2.576c.653-.71 1.456-1.064 2.408-1.064.476 0 .914.107 1.316.322.401.205.709.457.924.756v-.938h1.54v7h-1.54v-.938c-.215.298-.523.555-.924.77-.402.205-.84.308-1.316.308Zm-1.218-2.044c.392.429.891.644 1.498.644.606 0 1.106-.215 1.498-.644.392-.43.588-.962.588-1.596 0-.635-.196-1.167-.588-1.596-.392-.43-.892-.644-1.498-.644-.607 0-1.106.214-1.498.644-.392.429-.588.961-.588 1.596 0 .634.196 1.166.588 1.596Zm8.904 4.83h-1.694l1.498-3.304-3.01-6.622h1.694l2.142 4.956 2.156-4.956h1.708l-4.494 9.926Zm6.283-3.276-1.498 2.408h-.952l.966-2.058a1.108 1.108 0 0 1-.49-.42 1.25 1.25 0 0 1-.196-.686c0-.336.116-.621.35-.854.233-.243.518-.364.854-.364.336 0 .62.121.854.364.233.233.35.518.35.854 0 .27-.08.522-.238.756Zm5.431.35v-8.414h-2.002l1.176-1.526h2.366v9.94h-1.54Zm4.42 0v-8.414h-2.002l1.176-1.526h2.366v9.94h-1.54Zm4.349-4.732a1.195 1.195 0 0 1-1.204-1.218c0-.327.117-.612.35-.854a1.17 1.17 0 0 1 .854-.364c.336 0 .621.121.854.364.243.242.364.527.364.854 0 .336-.121.625-.364.868-.233.233-.518.35-.854.35Zm0 4.844a1.195 1.195 0 0 1-1.204-1.218c0-.327.117-.612.35-.854a1.17 1.17 0 0 1 .854-.364c.336 0 .621.121.854.364.243.242.364.527.364.854 0 .336-.121.625-.364.868-.233.233-.518.35-.854.35Zm5.49.028a3.603 3.603 0 0 1-2.38-.854c-.681-.57-1.031-1.26-1.05-2.072h1.582c.103.42.322.76.658 1.022.346.261.742.392 1.19.392.551 0 .999-.178 1.344-.532.346-.364.518-.803.518-1.316 0-.532-.172-.971-.518-1.316-.336-.355-.77-.532-1.302-.532-.802 0-1.381.34-1.736 1.022l-1.386-.434 1.064-5.46h4.732v1.498h-3.528l-.462 2.38c.411-.29.929-.434 1.554-.434.934 0 1.69.322 2.268.966.579.644.868 1.465.868 2.464 0 .933-.322 1.703-.966 2.31-.634.597-1.451.896-2.45.896Zm10.535-1.064c-.672.709-1.535 1.064-2.59 1.064s-1.918-.355-2.59-1.064c-.672-.719-1.008-1.638-1.008-2.758v-2.604c0-1.12.336-2.035 1.008-2.744.672-.719 1.535-1.078 2.59-1.078s1.918.359 2.59 1.078c.681.709 1.022 1.624 1.022 2.744v2.604c0 1.12-.341 2.039-1.022 2.758Zm-2.59-.448c.625 0 1.125-.206 1.498-.616.383-.411.574-.976.574-1.694v-2.604c0-.719-.191-1.284-.574-1.694-.373-.411-.873-.616-1.498-.616-.616 0-1.115.205-1.498.616-.373.41-.56.975-.56 1.694v2.604c0 .718.187 1.283.56 1.694.383.41.882.616 1.498.616Z" fill="#fff" fill-opacity=".25"/><rect x="17.098" y="53.73" width="89.59" height="62.234" rx="21.885" fill="#000" fill-opacity=".89"/><g clip-path="url(#svg454361139_14525_k)"><path d="M71.995 84.076 59.43 97.54a.898.898 0 0 1-1.536-.785l1.645-8.228L53.07 86.1a.896.896 0 0 1-.336-1.458L65.3 71.176a.898.898 0 0 1 1.536.786l-1.649 8.236 6.466 2.425a.898.898 0 0 1 .337 1.453h.004Z" fill="#DF0"/></g><circle cx="128" cy="61" r="4" fill="#DF0"/><path d="M143.06 65h-1.02l-4-5.11V65h-1.17v-7.1h1.02l3.99 5.1v-5.1h1.18V65Zm2.34 0v-7.1h4.27v1.12h-3.1v1.82h2.5v1.12h-2.5v1.92h3.1V65h-4.27Zm11.765 0-1.65-4.34-1.65 4.34h-1.08l-1.83-7.1h1.23l1.29 5.16 2.04-5.28 2.03 5.28 1.3-5.16h1.24l-1.84 7.1h-1.08Z" fill="#DF0"/><defs><linearGradient id="svg454361139_14525_a" x1="191.804" y1="115.5" x2="35.685" y2="115.5" gradientUnits="userSpaceOnUse"><stop stop-color="#ACF80B"/><stop offset="1" stop-color="#ACF80B" stop-opacity="0"/></linearGradient><linearGradient id="svg454361139_14525_b" x1="191.804" y1="177.5" x2="35.685" y2="177.5" gradientUnits="userSpaceOnUse"><stop stop-color="#ACF80B"/><stop offset="1" stop-color="#ACF80B" stop-opacity="0"/></linearGradient><linearGradient id="svg454361139_14525_c" x1="191.804" y1="131" x2="35.685" y2="131" gradientUnits="userSpaceOnUse"><stop stop-color="#ACF80B"/><stop offset="1" stop-color="#ACF80B" stop-opacity="0"/></linearGradient><linearGradient id="svg454361139_14525_d" x1="268.925" y1="146.5" x2="17.006" y2="146.5" gradientUnits="userSpaceOnUse"><stop stop-color="#ACF80B"/><stop offset="1" stop-color="#ACF80B" stop-opacity="0"/></linearGradient><linearGradient id="svg454361139_14525_e" x1="268.925" y1="162" x2="17.006" y2="162" gradientUnits="userSpaceOnUse"><stop stop-color="#ACF80B"/><stop offset="1" stop-color="#ACF80B" stop-opacity="0"/></linearGradient><linearGradient id="svg454361139_14525_f" x1="268.925" y1="100" x2="17.006" y2="100" gradientUnits="userSpaceOnUse"><stop stop-color="#ACF80B"/><stop offset="1" stop-color="#ACF80B" stop-opacity="0"/></linearGradient><linearGradient id="svg454361139_14525_g" x1="206.925" y1="193" x2="-44.995" y2="193" gradientUnits="userSpaceOnUse"><stop stop-color="#ACF80B"/><stop offset="1" stop-color="#ACF80B" stop-opacity="0"/></linearGradient><linearGradient id="svg454361139_14525_h" x1="23.297" y1="1" x2="50.198" y2="99.246" gradientUnits="userSpaceOnUse"><stop stop-color="#292929"/><stop offset="1" stop-color="#292929" stop-opacity="0"/></linearGradient><linearGradient id="svg454361139_14525_j" x1="8.262" y1="38" x2="43.861" y2="157.496" gradientUnits="userSpaceOnUse"><stop stop-color="#292929"/><stop offset="1" stop-color="#292929" stop-opacity="0"/></linearGradient><clipPath id="svg454361139_14525_i"><path fill="#fff" transform="translate(53.465 26.247)" d="M0 0h26.062v26.062H0z"/></clipPath><clipPath id="svg454361139_14525_k"><path fill="#fff" transform="translate(48 70)" d="M0 0h28.724v28.724H0z"/></clipPath></defs></svg>