<svg fill="none" xmlns="http://www.w3.org/2000/svg" id="svg1433160231_4069"><path stroke="url(#svg1433160231_4069_a)" stroke-width="2" stroke-dasharray="3.5 3.5" d="M26 93v129"/><path stroke="url(#svg1433160231_4069_b)" stroke-width="2" stroke-dasharray="3.5 3.5" d="M66 93v129"/><path stroke="url(#svg1433160231_4069_c)" stroke-width="2" stroke-dasharray="3.5 3.5" d="M106 93v129"/><path stroke="url(#svg1433160231_4069_d)" stroke-width="2" stroke-dasharray="3.5 3.5" d="M145 93v129"/><path stroke="url(#svg1433160231_4069_e)" stroke-width="2" stroke-dasharray="3.5 3.5" d="M185 13v209"/><path stroke="url(#svg1433160231_4069_f)" stroke-width="2" stroke-dasharray="3.5 3.5" d="M224 13v209"/><path stroke="url(#svg1433160231_4069_g)" stroke-width="2" stroke-dasharray="3.5 3.5" d="M263 13v209"/><path d="M21.658 225c7.705-9.636 29.858-27.943 41.416-30.834 11.558-2.891 22.153 0 30.82-6.745 8.669-6.745 8.669-14.453 18.301-16.38 9.631-1.927 20.226 11.562 31.784 7.708 11.558-3.854 18.3-19.27 22.153-38.541 3.852-19.271 2.98-53.208 40.5-53.208s45.399-60.783 45.399-73.915" stroke="#404040" stroke-width="3.502"/><path d="M21.658 224.999c7.705-9.636 29.858-27.943 41.416-30.834 11.558-2.89 22.153 0 30.82-6.745 8.669-6.744 8.669-14.453 18.301-16.38 9.631-1.927 20.226 11.563 31.784 7.708 11.558-3.854 22.715-23.203 23.882-57.93" stroke="url(#svg1433160231_4069_h)" stroke-width="3.502"/><circle cx="168.316" cy="121.274" r="6" fill="#93F24D"/><circle cx="167.977" cy="120.685" r="18" fill="#6CE57D" fill-opacity=".15"/><g filter="url(#svg1433160231_4069_i)"><ellipse cx="168" cy="118.5" rx="66" ry="64.5" fill="#E2FA06" fill-opacity=".06"/></g><path d="M38.861 182.553v-2.704h-5.295v-.966l5.45-6.276h1.05v6.108h1.372v1.134h-1.372v2.704H38.86Zm-3.726-3.838h3.726v-4.287l-3.726 4.287Zm10.256 3.978c-.896 0-1.671-.28-2.325-.841-.654-.56-.99-1.223-1.009-1.989h1.233c.112.486.36.883.742 1.191.383.308.836.462 1.36.462.606 0 1.115-.205 1.526-.616a2.06 2.06 0 0 0 .616-1.513c0-.607-.196-1.116-.588-1.527-.392-.411-.892-.616-1.499-.616-.83 0-1.457.336-1.877 1.008l-1.148-.336 1.022-5.309h4.65v1.177h-3.683l-.547 2.844c.486-.346 1.065-.519 1.737-.519.925 0 1.681.327 2.27.981.597.644.896 1.461.896 2.451 0 .878-.322 1.625-.967 2.241-.644.607-1.447.911-2.409.911Z" fill="#fff" fill-opacity=".08"/><defs><linearGradient id="svg1433160231_4069_a" x1="25" y1="215.257" x2="25" y2="63.389" gradientUnits="userSpaceOnUse"><stop stop-color="#585858"/><stop offset="1" stop-color="#2C2C2C" stop-opacity="0"/></linearGradient><linearGradient id="svg1433160231_4069_b" x1="65" y1="215.257" x2="65" y2="63.389" gradientUnits="userSpaceOnUse"><stop stop-color="#585858"/><stop offset="1" stop-color="#2C2C2C" stop-opacity="0"/></linearGradient><linearGradient id="svg1433160231_4069_c" x1="105" y1="215.257" x2="105" y2="63.389" gradientUnits="userSpaceOnUse"><stop stop-color="#585858"/><stop offset="1" stop-color="#2C2C2C" stop-opacity="0"/></linearGradient><linearGradient id="svg1433160231_4069_d" x1="144" y1="215.257" x2="144" y2="63.389" gradientUnits="userSpaceOnUse"><stop stop-color="#585858"/><stop offset="1" stop-color="#2C2C2C" stop-opacity="0"/></linearGradient><linearGradient id="svg1433160231_4069_e" x1="184" y1="211.075" x2="184" y2="-34.975" gradientUnits="userSpaceOnUse"><stop stop-color="#585858"/><stop offset="1" stop-color="#2C2C2C" stop-opacity="0"/></linearGradient><linearGradient id="svg1433160231_4069_f" x1="223" y1="211.075" x2="223" y2="-34.975" gradientUnits="userSpaceOnUse"><stop stop-color="#585858"/><stop offset="1" stop-color="#2C2C2C" stop-opacity="0"/></linearGradient><linearGradient id="svg1433160231_4069_g" x1="262" y1="211.075" x2="262" y2="-34.975" gradientUnits="userSpaceOnUse"><stop stop-color="#585858"/><stop offset="1" stop-color="#2C2C2C" stop-opacity="0"/></linearGradient><linearGradient id="svg1433160231_4069_h" x1="126.339" y1="173.221" x2="43.42" y2="215.619" gradientUnits="userSpaceOnUse"><stop stop-color="#ACFA30"/><stop offset="1" stop-color="#65E386" stop-opacity="0"/></linearGradient><filter id="svg1433160231_4069_i" x="48.784" y=".784" width="238.432" height="235.432" filterUnits="userSpaceOnUse" color-interpolation-filters="sRGB"><feFlood flood-opacity="0" result="BackgroundImageFix"/><feBlend in="SourceGraphic" in2="BackgroundImageFix" result="shape"/><feGaussianBlur stdDeviation="26.608" result="effect1_foregroundBlur_666_3103"/></filter></defs></svg>