<svg width="40" height="40" viewBox="0 0 40 40" fill="none" xmlns="http://www.w3.org/2000/svg">
<g id="upload 1">
<path id="Vector" d="M26.1783 8.82166L21.1783 3.82166C20.8658 3.5092 20.4419 3.33368 20 3.33368C19.5581 3.33368 19.1342 3.5092 18.8217 3.82166L13.8217 8.82166C13.5181 9.13599 13.3501 9.557 13.3539 9.99399C13.3577 10.431 13.533 10.849 13.842 11.158C14.151 11.467 14.569 11.6423 15.006 11.6461C15.443 11.6499 15.864 11.4819 16.1783 11.1783L18.3333 9.02332V28.3333C18.3333 28.7754 18.5089 29.1993 18.8215 29.5118C19.1341 29.8244 19.558 30 20 30C20.442 30 20.866 29.8244 21.1785 29.5118C21.4911 29.1993 21.6667 28.7754 21.6667 28.3333V9.02332L23.8217 11.1783C24.136 11.4819 24.557 11.6499 24.994 11.6461C25.431 11.6423 25.849 11.467 26.158 11.158C26.4671 10.849 26.6423 10.431 26.6461 9.99399C26.6499 9.557 26.4819 9.13599 26.1783 8.82166Z" fill="#9035FF"/>
<path id="Vector_2" d="M30 15H21.6667V28.3333C21.6667 28.7754 21.4911 29.1993 21.1785 29.5118C20.8659 29.8244 20.442 30 20 30C19.558 30 19.134 29.8244 18.8215 29.5118C18.5089 29.1993 18.3333 28.7754 18.3333 28.3333V15H10C8.67432 15.0013 7.40332 15.5285 6.46593 16.4659C5.52853 17.4033 5.00132 18.6743 5 20V31.6667C5.00132 32.9923 5.52853 34.2633 6.46593 35.2007C7.40332 36.1381 8.67432 36.6653 10 36.6667H30C31.3257 36.6653 32.5967 36.1381 33.5341 35.2007C34.4715 34.2633 34.9987 32.9923 35 31.6667V20C34.9987 18.6743 34.4715 17.4033 33.5341 16.4659C32.5967 15.5285 31.3257 15.0013 30 15Z" fill="#D1ACFF"/>
</g>
</svg>
