<svg width="20" height="20" viewBox="0 0 20 20" fill="none" xmlns="http://www.w3.org/2000/svg">
<path id="Vector" fill-rule="evenodd" clip-rule="evenodd" d="M20 10C20 15.5228 15.5228 20 10 20C4.47715 20 0 15.5228 0 10C0 4.47715 4.47715 0 10 0C15.5228 0 20 4.47715 20 10ZM13 7C13 8.65685 11.6569 10 10 10C8.34315 10 7 8.65685 7 7C7 5.34315 8.34315 4 10 4C11.6569 4 13 5.34315 13 7ZM9.99998 18.5C11.784 18.5 13.4397 17.9504 14.8069 17.0112C15.4108 16.5964 15.6688 15.8062 15.3178 15.1632C14.59 13.8303 13.0902 13 9.99994 13C6.90969 13 5.40997 13.8302 4.68214 15.1632C4.33105 15.8062 4.5891 16.5963 5.19296 17.0111C6.56018 17.9503 8.2159 18.5 9.99998 18.5Z" fill="#1C274C"/>
</svg>
