<svg xmlns="http://www.w3.org/2000/svg" width="16" height="17" viewBox="0 0 16 17" fill="none">
  <g clip-path="url(#clip0_1891_10331)">
    <path fill-rule="evenodd" clip-rule="evenodd" d="M10 0.91211H7.29572C6.07055 0.912099 5.10013 0.912091 4.34065 1.0142C3.55904 1.11929 2.9264 1.3407 2.4275 1.83961C1.92859 2.33851 1.70718 2.97115 1.60209 3.75276C1.49998 4.51224 1.49999 5.48266 1.5 6.70783V10.7454C1.5 11.9936 2.4147 13.0281 3.61034 13.2153C3.70232 13.7246 3.87835 14.1593 4.23223 14.5132C4.63351 14.9145 5.13876 15.0871 5.73883 15.1678C6.31681 15.2455 7.05169 15.2455 7.96342 15.2454H10.0366C10.9483 15.2455 11.6832 15.2455 12.2612 15.1678C12.8612 15.0871 13.3665 14.9145 13.7678 14.5132C14.169 14.1119 14.3416 13.6067 14.4223 13.0066C14.5 12.4286 14.5 11.6938 14.5 10.782V7.37553C14.5 6.4638 14.5 5.72892 14.4223 5.15094C14.3416 4.55087 14.169 4.04562 13.7678 3.64434C13.4139 3.29046 12.9791 3.11443 12.4698 3.02245C12.2827 1.82681 11.2482 0.91211 10 0.91211ZM11.4196 2.92622C11.2177 2.33627 10.6584 1.91211 10 1.91211H7.33333C6.06212 1.91211 5.15901 1.91317 4.4739 2.00528C3.80317 2.09546 3.41674 2.26457 3.1346 2.54671C2.85246 2.82885 2.68335 3.21528 2.59317 3.88601C2.50106 4.57112 2.5 5.47423 2.5 6.74544V10.7454C2.5 11.4038 2.92416 11.9631 3.51411 12.165C3.49999 11.7584 3.49999 11.2986 3.5 10.782V7.37553C3.49999 6.4638 3.49998 5.72892 3.57768 5.15094C3.65836 4.55087 3.83096 4.04562 4.23223 3.64434C4.63351 3.24307 5.13876 3.07047 5.73883 2.98979C6.31681 2.91208 7.05169 2.9121 7.96342 2.91211H10.0366C10.5531 2.9121 11.0129 2.9121 11.4196 2.92622ZM4.93934 4.35145C5.12385 4.16694 5.3829 4.04664 5.87208 3.98088C6.37565 3.91317 7.04306 3.91211 8 3.91211H10C10.9569 3.91211 11.6244 3.91317 12.1279 3.98088C12.6171 4.04664 12.8762 4.16694 13.0607 4.35145C13.2452 4.53596 13.3655 4.79501 13.4312 5.28419C13.4989 5.78776 13.5 6.45517 13.5 7.41211V10.7454C13.5 11.7024 13.4989 12.3698 13.4312 12.8734C13.3655 13.3625 13.2452 13.6216 13.0607 13.8061C12.8762 13.9906 12.6171 14.1109 12.1279 14.1767C11.6244 14.2444 10.9569 14.2454 10 14.2454H8C7.04306 14.2454 6.37565 14.2444 5.87208 14.1767C5.3829 14.1109 5.12385 13.9906 4.93934 13.8061C4.75483 13.6216 4.63453 13.3625 4.56877 12.8734C4.50106 12.3698 4.5 11.7024 4.5 10.7454V7.41211C4.5 6.45517 4.50106 5.78776 4.56877 5.28419C4.63453 4.79501 4.75483 4.53596 4.93934 4.35145Z" fill="#AFAFAF"/>
  </g>
  <defs>
    <clipPath id="clip0_1891_10331">
      <rect width="16" height="16" fill="white" transform="translate(0 0.0791016)"/>
    </clipPath>
  </defs>
</svg>