<svg xmlns="http://www.w3.org/2000/svg" width="17" height="17" viewBox="0 0 17 17" fill="none">
  <path fill-rule="evenodd" clip-rule="evenodd" d="M7.12873 2.24609H9.87062C11.0958 2.24608 12.0662 2.24607 12.8257 2.34818C13.6073 2.45327 14.2399 2.67468 14.7388 3.17359C15.2378 3.6725 15.4592 4.30513 15.5643 5.08675C15.6664 5.84622 15.6664 6.81665 15.6663 8.04182V8.11703C15.6664 9.34221 15.6664 10.3126 15.5643 11.0721C15.4592 11.8537 15.2378 12.4864 14.7388 12.9853C14.2399 13.4842 13.6073 13.7056 12.8257 13.8107C12.0662 13.9128 11.0958 13.9128 9.87062 13.9128H7.12873C5.90356 13.9128 4.93314 13.9128 4.17366 13.8107C3.39204 13.7056 2.75941 13.4842 2.2605 12.9853C1.76159 12.4864 1.54018 11.8537 1.4351 11.0721C1.33299 10.3126 1.333 9.34221 1.33301 8.11704V8.04182C1.333 6.81664 1.33299 5.84622 1.4351 5.08675C1.54018 4.30513 1.76159 3.6725 2.2605 3.17359C2.75941 2.67468 3.39205 2.45327 4.17366 2.34818C4.93314 2.24607 5.90356 2.24608 7.12873 2.24609ZM4.30691 3.33927C3.63618 3.42944 3.24975 3.59856 2.96761 3.8807C2.68547 4.16284 2.51636 4.54927 2.42618 5.21999C2.33407 5.9051 2.33301 6.80821 2.33301 8.07943C2.33301 9.35064 2.33407 10.2538 2.42618 10.9389C2.51636 11.6096 2.68547 11.996 2.96761 12.2782C3.24975 12.5603 3.63618 12.7294 4.30691 12.8196C4.99202 12.9117 5.89513 12.9128 7.16634 12.9128H9.83301C11.1042 12.9128 12.0073 12.9117 12.6924 12.8196C13.3632 12.7294 13.7496 12.5603 14.0317 12.2782C14.3139 11.996 14.483 11.6096 14.5732 10.9389C14.6653 10.2538 14.6663 9.35064 14.6663 8.07943C14.6663 6.80821 14.6653 5.9051 14.5732 5.21999C14.483 4.54927 14.3139 4.16284 14.0317 3.8807C13.7496 3.59856 13.3632 3.42944 12.6924 3.33927C12.0073 3.24716 11.1042 3.24609 9.83301 3.24609H7.16634C5.89513 3.24609 4.99202 3.24716 4.30691 3.33927ZM4.11556 5.09267C4.29235 4.88053 4.60763 4.85187 4.81977 5.02865L6.25903 6.22804C6.881 6.74635 7.31283 7.10504 7.6774 7.33951C8.0303 7.56649 8.26963 7.64268 8.49968 7.64268C8.72972 7.64268 8.96905 7.56649 9.32195 7.33951C9.68652 7.10504 10.1183 6.74635 10.7403 6.22804L12.1796 5.02865C12.3917 4.85187 12.707 4.88053 12.8838 5.09267C13.0606 5.30481 13.0319 5.62009 12.8198 5.79687L11.3554 7.01714C10.7645 7.50958 10.2856 7.90871 9.86289 8.18058C9.42256 8.46378 8.99373 8.64268 8.49968 8.64268C8.00562 8.64268 7.57679 8.46378 7.13646 8.18058C6.71375 7.90871 6.23482 7.50958 5.64392 7.01715L4.17958 5.79687C3.96744 5.62009 3.93878 5.30481 4.11556 5.09267Z" fill="#B9B9B9"/>
</svg>