<svg xmlns="http://www.w3.org/2000/svg" width="206" height="178" viewBox="0 0 206 178" fill="none">
  <g clip-path="url(#clip0_1833_9978)">
    <path d="M85.9146 153.836L88.1603 146.522C85.4583 143.548 82.0711 141.279 78.293 139.911C81.9842 146.026 78.4074 154.004 79.8979 160.99C80.3795 163.165 81.3444 165.204 82.7211 166.955C84.0978 168.707 85.851 170.126 87.8509 171.108L91.2588 175.331C93.0454 172.21 94.134 168.738 94.4497 165.155C94.7654 161.573 94.3007 157.964 93.0875 154.578C92.3881 152.686 91.4532 150.889 90.3047 149.23C88.2796 151.611 85.9146 153.836 85.9146 153.836Z" fill="#F2F2F2"/>
    <path d="M73.566 154.773L72.3142 147.225C68.5695 145.769 64.5258 145.248 60.5342 145.709C66.5653 149.536 66.9217 158.271 71.3713 163.859C72.7724 165.591 74.5454 166.986 76.5588 167.94C78.5722 168.894 80.7744 169.382 83.0023 169.369L87.9357 171.629C88.1427 168.038 87.5688 164.445 86.2536 161.098C84.9384 157.75 82.9131 154.728 80.3173 152.239C78.8472 150.857 77.2089 149.665 75.4411 148.692C74.6903 151.726 73.566 154.773 73.566 154.773Z" fill="#F2F2F2"/>
    <path d="M147.067 173.457L143.608 173.457L141.962 160.114L147.067 160.115L147.067 173.457Z" fill="#FFB6B6"/>
    <path d="M147.949 176.807L136.795 176.806V176.665C136.795 175.514 137.252 174.41 138.067 173.596C138.881 172.781 139.985 172.324 141.136 172.324H141.137L143.174 170.778L146.975 172.324L147.949 172.324L147.949 176.807Z" fill="#2F2E41"/>
    <path d="M202.945 160.837L200.587 163.367L189.704 155.474L193.185 151.739L202.945 160.837Z" fill="#FFB6B6"/>
    <path d="M206 162.48L198.395 170.639L198.291 170.543C197.449 169.758 196.953 168.671 196.913 167.52C196.872 166.369 197.291 165.25 198.076 164.407L198.334 161.863L202.057 160.136L202.721 159.424L206 162.48Z" fill="#2F2E41"/>
    <path d="M197.827 153.338L194.171 160.985L171.719 146.12L168.452 141.67L157.743 127.078L153.389 133.985L150.36 141.206C149.373 141.85 148.541 142.706 147.925 143.71C147.308 144.715 146.922 145.844 146.795 147.015L146.657 148.294L148.571 165.501L141.296 167.735L137.117 144.619L138.483 139.61L139.889 132.579L146.969 110.36H165.916L176.782 133.491L177.577 138.204L180.658 141.74L197.827 153.338Z" fill="#2F2E41"/>
    <path d="M158.453 74.0088L161.643 76.4374L165.489 77.6194C165.489 77.6194 167.079 99.9867 168.512 101.42C169.945 102.852 168.652 102.891 168.94 104.752C169.228 106.613 169.928 110.429 169.928 110.429C160.257 115.548 151.919 115.686 145.222 109.695C145.136 109.324 145.179 108.936 145.345 108.593C145.511 108.251 145.788 107.975 146.132 107.812C147.378 107.151 144.983 104.064 146.001 103.548C147.02 103.031 145.587 98.5539 145.587 98.5539L146.527 89.2121L145.785 87.7187L147.597 78.5813L150.741 77.433L151.997 74.4067L158.453 74.0088Z" fill="#3F3D56"/>
    <path d="M160.451 113.763C160.437 113.359 160.511 112.957 160.669 112.585C160.827 112.213 161.065 111.88 161.365 111.61C161.666 111.339 162.022 111.138 162.408 111.021C162.795 110.903 163.203 110.871 163.603 110.928L168.098 102.191L170.602 106.641L165.95 114.255C165.81 114.921 165.43 115.512 164.883 115.917C164.336 116.322 163.66 116.512 162.982 116.451C162.304 116.391 161.672 116.084 161.206 115.588C160.739 115.093 160.471 114.443 160.451 113.763Z" fill="#FFB6B6"/>
    <path d="M168.021 111.626L177.661 96.6837L177.63 96.615C177.593 96.5362 175.41 91.8212 173.295 87.5025C172.969 86.8375 172.645 86.1818 172.33 85.5539C172.195 85.2829 172.061 85.0176 171.929 84.758C171.041 83.0064 170.264 81.5587 169.801 80.871C168.776 79.3161 167.25 78.1586 165.477 77.5906L165.432 77.5791L165.39 77.5969C164.522 77.9629 163.805 78.6137 163.357 79.4418C162.909 80.2699 162.757 81.226 162.925 82.1524C163.761 86.6208 165.625 90.8337 168.368 94.4585L169.931 96.5186L164.5 108.327L168.021 111.626Z" fill="#3F3D56"/>
    <path d="M134.869 54.3505C135.135 54.6553 135.33 55.0146 135.442 55.4031C135.553 55.7916 135.578 56.1998 135.515 56.599C135.452 56.9982 135.302 57.3787 135.076 57.7137C134.849 58.0487 134.552 58.33 134.206 58.5378L136.215 68.1551L131.468 66.2756L130.288 57.431C129.977 56.8254 129.9 56.127 130.07 55.4681C130.24 54.8091 130.645 54.2355 131.21 53.8558C131.775 53.4761 132.459 53.3167 133.134 53.4079C133.808 53.4991 134.426 53.8345 134.869 54.3505Z" fill="#FFB6B6"/>
    <path d="M130.334 60.7773L132.254 78.4557L132.322 78.4891C132.378 78.5166 134.81 79.7095 137.795 81.1302C138.299 81.3699 138.227 82.408 138.753 82.6562C139.116 82.8271 140.073 82.2069 140.439 82.3782C143.702 83.9042 147.002 85.3881 148.317 85.7901C150.092 86.3526 152.007 86.291 153.742 85.6155L153.784 85.5963L153.806 85.5557C154.249 84.725 154.396 83.7681 154.223 82.8427C154.049 81.9172 153.566 81.0785 152.852 80.4648C149.388 77.5202 145.288 75.4208 140.874 74.3324L138.363 73.7162L135.146 61.1229L130.334 60.7773Z" fill="#3F3D56"/>
    <path d="M155.053 73.0079C158.537 73.0079 161.361 70.1835 161.361 66.6993C161.361 63.2151 158.537 60.3906 155.053 60.3906C151.569 60.3906 148.744 63.2151 148.744 66.6993C148.744 70.1835 151.569 73.0079 155.053 73.0079Z" fill="#FFB6B6"/>
    <path d="M148.789 62.4716C149.308 60.9622 151.89 59.9153 156.077 59.7698C160.264 59.6242 161.326 64.5583 161.326 64.5583C164.121 66.8256 158.341 72.8959 158.062 72.6773L158.188 71.5368C158.396 69.6477 159.28 68.1737 158.155 66.205L157.075 66.2174C155.68 66.4857 154.285 66.754 152.89 67.0222L154.541 65.5679L154.495 65.4959C153.792 65.8618 153.027 66.094 152.24 66.1805C151.352 66.2326 150.382 65.8793 149.956 65.0983C149.843 64.8836 149.774 64.6483 149.752 64.4064C148.555 64.8847 148.008 66.3605 148.008 66.3605C148.008 66.3605 148.27 63.9809 148.789 62.4716Z" fill="#2F2E41"/>
    <path d="M25.8024 62.8495C25.7168 62.7409 25.6246 62.6377 25.5264 62.5405C25.5504 62.5075 25.5744 62.4715 25.5984 62.4385L25.8024 62.8495Z" fill="#2F2E41"/>
    <path d="M27.0286 88.2227C25.9966 90.0557 23.9357 91.0786 21.8928 91.5796C19.5981 92.1807 17.1817 92.1339 14.912 91.4446C14.624 91.3516 14.336 91.2436 14.057 91.1236C14.1911 90.7674 14.2975 90.4013 14.375 90.0287C14.4794 89.5244 14.5317 89.0107 14.531 88.4957C14.3037 88.9393 14.0092 89.3451 13.658 89.6987C13.3871 89.9833 13.0794 90.2305 12.7431 90.4337C11.6998 89.8005 10.7965 88.9615 10.0882 87.9677C10.1331 87.8568 10.1782 87.7458 10.2202 87.6348C10.438 87.055 10.6105 86.4593 10.7361 85.8528C10.9066 85.0328 10.992 84.1974 10.9911 83.3599C10.6212 84.0816 10.1415 84.7414 9.56915 85.3158C9.39755 85.4994 9.21525 85.6727 9.02319 85.8348C8.72577 84.9315 8.61079 83.9782 8.68494 83.0301C8.7591 82.082 9.02091 81.1581 9.45516 80.312C10.6431 78.1161 12.9471 76.8111 14.999 75.3922C17.0539 73.9732 19.1089 72.0533 19.2828 69.5604C19.3998 67.8774 18.6199 66.1914 18.9319 64.5355C19.0631 63.8372 19.3834 63.1883 19.858 62.6595C20.3325 62.1307 20.9431 61.7422 21.6232 61.5365C22.3033 61.3307 23.0268 61.3155 23.7149 61.4926C24.403 61.6696 25.0293 62.0321 25.5256 62.5406C24.3617 64.1905 23.2037 65.8975 22.7327 67.8594C22.2528 69.8573 22.6457 72.2003 24.2207 73.5232C24.7607 73.9792 25.4237 74.3032 25.8406 74.8732C26.3956 75.6291 26.3986 76.6371 26.4886 77.5671C26.6686 79.376 27.2596 81.116 27.5776 82.9069C27.8986 84.6949 27.9166 86.6358 27.0286 88.2227Z" fill="#2F2E41"/>
    <path d="M5.87402 162.616L8.61199 164.732L18.0744 155.178L14.0334 152.056L5.87402 162.616Z" fill="#A0616A"/>
    <path d="M5.99096 160.548L10.5185 163.634L9.08572 165.488L11.0046 171.509C11.0994 171.807 11.0967 172.126 10.9968 172.422C10.8969 172.718 10.7052 172.974 10.4495 173.153C10.1938 173.332 9.88756 173.425 9.57552 173.417C9.26348 173.41 8.96196 173.303 8.71499 173.112L3.56239 169.131L4.09152 166.61L2.3275 168.176L0.384766 166.675L5.99096 160.548Z" fill="#2F2E41"/>
    <path d="M19.7646 68.1808C19.7643 69.2505 20.0265 70.304 20.5282 71.2487C21.03 72.1935 21.7561 73.0006 22.6426 73.5992C23.5291 74.1979 24.5491 74.5697 25.6129 74.6822C26.6767 74.7946 27.7518 74.6442 28.7439 74.2441C29.736 73.844 30.6147 73.2066 31.3029 72.3876C31.9911 71.5686 32.4678 70.5933 32.691 69.5471C32.9143 68.5009 32.8773 67.4159 32.5834 66.3874C32.2894 65.3589 31.7475 64.4182 31.0051 63.648L30.9737 63.6167C30.9215 63.5617 30.8692 63.5069 30.8143 63.4546L30.8133 63.4544L30.8124 63.4538L30.8118 63.4529L30.8117 63.4519C30.7437 63.3892 30.6757 63.3265 30.6051 63.2663C29.455 62.2573 27.8384 61.1621 26.1889 61.1621C22.5789 61.1621 19.7646 64.5708 19.7646 68.1808Z" fill="#2F2E41"/>
    <path d="M57.0139 64.8224C57.0452 65.1709 56.9997 65.5221 56.8806 65.8512C56.7614 66.1802 56.5716 66.4792 56.3245 66.727C56.0773 66.9747 55.7789 67.1653 55.4501 67.2852C55.1213 67.4052 54.7703 67.4515 54.4216 67.4211L38.2389 82.0324L35.4541 77.6341L52.2368 64.6547C52.3268 64.0724 52.6271 63.5433 53.0811 63.1677C53.535 62.7921 54.111 62.5961 54.6998 62.6167C55.2887 62.6374 55.8495 62.8733 56.276 63.2798C56.7025 63.6864 56.965 64.2352 57.0139 64.8224Z" fill="#A0616A"/>
    <path d="M31.3234 86.4453C31.3234 86.4453 31.9255 87.5574 33.9822 85.8402C35.6288 84.4655 43.5174 78.4975 45.2169 76.052C45.605 76.2057 46.0331 76.226 46.434 76.1096C46.8349 75.9932 47.1856 75.7468 47.431 75.4091L42.7745 71.3311C41.3813 71.4914 41.4112 72.4274 41.5563 72.9587L38.0438 74.5501L28.9736 80.3466L30.8739 85.6492L31.3234 86.4453Z" fill="#6C63FF"/>
    <path d="M22.5364 96.6883L22.1972 98.3035L21.9092 104.262L34.5891 104.958L34.1953 95.7948L32.9662 93.7754L22.5364 96.6883Z" fill="#A0616A"/>
    <path d="M27.9097 75.1709C30.9362 75.1709 33.3897 72.7175 33.3897 69.6909C33.3897 66.6644 30.9362 64.2109 27.9097 64.2109C24.8832 64.2109 22.4297 66.6644 22.4297 69.6909C22.4297 72.7175 24.8832 75.1709 27.9097 75.1709Z" fill="#A0616A"/>
    <path d="M18.1812 89.9065L18.1475 85.3513C18.1467 83.7123 18.7013 82.1214 19.7209 80.8381C20.7405 79.5548 22.1649 78.6549 23.7617 78.2852L23.7824 78.2804L24.866 76.8203L29.2685 77.2607L30.0754 78.9099L33.2655 80.8094L34.4937 84.7578C35.0265 85.1128 35.4805 85.5737 35.8276 86.1116C36.1747 86.6496 36.4075 87.2532 36.5115 87.8849C36.9284 90.5485 35.0635 93.2136 34.8417 93.5192L34.2701 96.7383L21.836 98.9322L21.735 98.945L18.1812 89.9065Z" fill="#6C63FF"/>
    <path d="M34.6155 68.7135C33.9763 69.1184 33.3131 69.4841 32.6295 69.8085C31.9358 70.1418 31.2101 70.4041 30.4636 70.5915C30.25 70.1229 29.9887 69.6775 29.6837 69.2625C29.7621 69.7542 29.7642 70.2551 29.6896 70.7475C28.4523 70.9471 27.185 70.8431 25.9968 70.4445L24.9648 68.7136L24.8868 70.6455C24.0318 70.8015 23.1799 70.9485 22.3249 71.1015C22.2739 71.1075 22.2229 71.1195 22.1749 71.1285C21.6439 68.7346 22.3969 66.0976 24.0708 64.5017C24.9019 63.7176 25.9387 63.1857 27.0604 62.968C28.1821 62.7502 29.3425 62.8556 30.4066 63.2717C30.5416 63.3257 30.6796 63.3857 30.8116 63.4487L30.8118 63.4499L30.8125 63.4509L30.8135 63.4515L30.8146 63.4517C30.8926 63.4907 30.9586 63.5837 31.0456 63.5747C34.7895 63.1577 34.9095 66.0616 34.6155 68.7135Z" fill="#2F2E41"/>
    <path d="M25.499 155.552L28.2412 157.661L37.6845 148.088L33.6373 144.975L25.499 155.552Z" fill="#A0616A"/>
    <path d="M25.8604 153.673L30.3942 156.75L28.9651 158.607L30.8962 164.624C30.9916 164.921 30.9895 165.241 30.8902 165.537C30.791 165.833 30.5997 166.089 30.3444 166.269C30.089 166.448 29.783 166.542 29.4709 166.535C29.1589 166.528 28.8572 166.422 28.6098 166.231L23.4492 162.261L23.9732 159.739L22.2124 161.309L20.2666 159.812L25.8604 153.673Z" fill="#2F2E41"/>
    <path d="M16.6005 143.866L16.6004 143.83L17.9 141.59L16.573 138.675L16.5331 131.185L16.7483 130.061C17.0376 128.548 16.9534 126.988 16.503 125.516L16.4788 120.957C16.4322 119.815 18.2014 118.81 17.7888 117.858C13.889 108.859 21.7712 101.993 21.8245 101.938L21.9855 101.771L22.8595 102.432L23.6913 102.433L34.9165 104.479L34.9976 104.63C35.4391 105.458 36.2911 108.313 36.3417 109.604C36.9011 110.252 43.2737 117.626 43.8401 118.138C47.6682 121.602 49.8599 127.335 50.8256 130.444C51.0654 131.212 51.1138 132.027 50.9664 132.819C50.8191 133.61 50.4804 134.353 49.9801 134.984L35.4882 150.857L31.5884 147.257L39.4298 132.968L38.8643 131.519C37.8498 131.332 36.9316 130.798 36.2665 130.009L34.6786 128.125C34.239 127.604 33.9597 126.968 33.8744 126.292L32.9115 126.176L29.4623 122.555L27.0693 144.225L26.4187 145.937L15.0889 159.257L10.2891 156.257L16.6005 143.866Z" fill="#2F2E41"/>
    <path d="M14.8707 50.8136C14.653 51.0877 14.4981 51.4061 14.4168 51.7465C14.3355 52.0868 14.3298 52.4409 14.4001 52.7837C14.4705 53.1266 14.6151 53.4498 14.8239 53.7306C15.0327 54.0115 15.3005 54.2432 15.6085 54.4093L12.0059 65.0749L14.9476 76.3776L19.6912 74.2331L16.764 65.7078L18.954 53.2985C19.1989 52.7626 19.2386 52.1555 19.0658 51.5922C18.8929 51.029 18.5194 50.5487 18.0161 50.2424C17.5127 49.9361 16.9145 49.8251 16.3348 49.9303C15.7551 50.0356 15.2341 50.3499 14.8707 50.8136Z" fill="#A0616A"/>
    <path d="M19.2127 85.6912C19.2127 85.6912 18.0985 86.2895 17.3237 83.7247C16.7034 81.6713 12.4818 70.5227 12.4057 67.5456C11.997 67.4608 11.6282 67.2425 11.3572 66.925C11.0862 66.6074 10.9286 66.2088 10.9092 65.7918L17.0405 64.9434C18.1164 65.8429 17.5771 66.6085 17.1639 66.9727L19.2522 70.51L23.617 80.0594L20.0257 85.2731L19.2127 85.6912Z" fill="#6C63FF"/>
    <path d="M22.3242 71.1021C22.9539 69.2033 24.0829 67.5089 25.5929 66.1967C27.1028 64.8845 28.9381 64.0028 30.9062 63.6442C30.914 63.6416 30.9402 63.6311 30.9742 63.6155C30.9951 63.6024 31.0212 63.5893 31.0473 63.5763C30.9689 63.5318 30.8931 63.4926 30.8147 63.4534L30.8137 63.4532L30.8128 63.4526L30.8123 63.4518L30.8121 63.4508C30.7441 63.388 30.6762 63.3253 30.6056 63.2652L30.4069 63.273C30.4069 63.273 23.4247 62.1673 22.3242 71.1021Z" fill="#FD6584"/>
    <path d="M112.419 132.167C113.181 131.022 112.73 129.382 111.411 128.505C110.093 127.628 108.406 127.845 107.644 128.991C106.882 130.136 107.333 131.776 108.652 132.653C109.97 133.53 111.657 133.312 112.419 132.167Z" fill="#F2F2F2"/>
    <path d="M96.9501 89.417C97.7121 88.2716 97.2611 86.632 95.9426 85.7549C94.6242 84.8777 92.9377 85.0952 92.1757 86.2405C91.4137 87.3859 91.8647 89.0255 93.1831 89.9027C94.5015 90.7798 96.188 90.5623 96.9501 89.417Z" fill="#F2F2F2"/>
    <path d="M161.638 155.229C162.4 154.084 161.949 152.445 160.63 151.567C159.312 150.69 157.625 150.908 156.863 152.053C156.101 153.198 156.552 154.838 157.871 155.715C159.189 156.592 160.876 156.375 161.638 155.229Z" fill="#F2F2F2"/>
    <path d="M30.8563 17.6982C31.6183 16.5529 31.1673 14.9133 29.8489 14.0361C28.5305 13.159 26.8439 13.3764 26.0819 14.5218C25.3199 15.6672 25.7709 17.3068 27.0893 18.1839C28.4078 19.0611 30.0943 18.8436 30.8563 17.6982Z" fill="#F2F2F2"/>
    <path d="M91.8876 4.19822C92.6496 3.05284 92.1986 1.41326 90.8801 0.536116C89.5617 -0.341029 87.8752 -0.123585 87.1132 1.0218C86.3512 2.16718 86.8022 3.80677 88.1206 4.68392C89.439 5.56106 91.1255 5.3436 91.8876 4.19822Z" fill="#F2F2F2"/>
    <path d="M63.0038 117.465C63.7658 116.319 63.3148 114.68 61.9964 113.803C60.6779 112.926 58.9914 113.143 58.2294 114.288C57.4674 115.434 57.9184 117.073 59.2368 117.951C60.5552 118.828 62.2417 118.61 63.0038 117.465Z" fill="#E6E6E6"/>
    <path d="M188.897 177.077H6.00188C5.91323 177.077 5.8283 177.041 5.76571 176.979C5.70312 176.916 5.66797 176.831 5.66797 176.742C5.66797 176.653 5.70312 176.568 5.76571 176.506C5.8283 176.443 5.91323 176.407 6.00188 176.407H188.897C188.986 176.407 189.071 176.442 189.134 176.505C189.197 176.568 189.232 176.653 189.232 176.742C189.232 176.831 189.197 176.916 189.134 176.979C189.071 177.042 188.986 177.077 188.897 177.077Z" fill="#CCCCCC"/>
    <path d="M40.0432 65.8572C38.5047 65.8528 37.0219 65.2815 35.8781 64.2526C34.7342 63.2237 34.0098 61.8093 33.8431 60.2799L30.2725 27.1186C30.0971 25.4721 30.5819 23.8233 31.6207 22.5339C32.6594 21.2444 34.1673 20.4197 35.8133 20.2406L141.832 8.82528C143.478 8.64977 145.127 9.13456 146.417 10.1733C147.706 11.212 148.531 12.7199 148.71 14.366L152.281 47.5271C152.456 49.1736 151.971 50.8225 150.932 52.112C149.894 53.4015 148.386 54.2262 146.74 54.4054L40.7212 65.8207C40.496 65.845 40.2697 65.8572 40.0432 65.8572Z" fill="#E6E6E6"/>
    <path d="M140.665 10.3662C140.465 10.3663 140.266 10.377 140.068 10.3984L37.8724 21.4021C37.1578 21.4791 36.4653 21.696 35.8346 22.0405C35.2039 22.3851 34.6471 22.8505 34.1963 23.4102C33.7454 23.9699 33.4092 24.6129 33.2068 25.3025C33.0044 25.9922 32.9399 26.7149 33.0168 27.4295L34.8221 44.1961C35.114 46.9067 35.9368 49.5332 37.2437 51.9257C38.5506 54.3183 40.3159 56.43 42.4389 58.1402C44.5619 59.8505 47.001 61.1259 49.6169 61.8935C52.2328 62.6612 54.9743 62.906 57.6848 62.6142L129.546 54.8766C132.248 54.5857 134.866 53.7653 137.252 52.4624C139.637 51.1595 141.742 49.3995 143.447 47.2829C145.152 45.1664 146.424 42.7347 147.189 40.1268C147.954 37.5189 148.199 34.7857 147.908 32.0834L146.096 15.2539C145.951 13.9134 145.317 12.6733 144.315 11.7714C143.313 10.8694 142.013 10.3691 140.665 10.3662Z" fill="white"/>
    <path d="M119.143 27.8122L62.0241 33.9624C61.8608 33.9802 61.6956 33.9657 61.5379 33.9196C61.3802 33.8735 61.2331 33.7967 61.1051 33.6938C60.9771 33.5908 60.8707 33.4636 60.7919 33.3194C60.7131 33.1753 60.6634 33.017 60.6459 32.8536C60.6283 32.6903 60.6431 32.5251 60.6894 32.3675C60.7357 32.2098 60.8126 32.0629 60.9158 31.935C61.0189 31.8072 61.1463 31.7009 61.2905 31.6223C61.4348 31.5437 61.5931 31.4942 61.7565 31.4769L118.875 25.3267C119.038 25.3089 119.204 25.3235 119.361 25.3696C119.519 25.4157 119.666 25.4924 119.794 25.5954C119.922 25.6984 120.029 25.8256 120.107 25.9697C120.186 26.1139 120.236 26.2721 120.253 26.4355C120.271 26.5988 120.256 26.764 120.21 26.9217C120.164 27.0793 120.087 27.2262 119.983 27.3541C119.88 27.482 119.753 27.5883 119.609 27.6669C119.464 27.7455 119.306 27.7949 119.143 27.8122Z" fill="#6C63FF"/>
    <path d="M119.964 35.441L62.8457 41.5912C62.5161 41.6266 62.1859 41.5298 61.9277 41.3218C61.6696 41.1138 61.5046 40.8118 61.4691 40.4822C61.4336 40.1526 61.5305 39.8224 61.7385 39.5642C61.9465 39.3061 62.2485 39.1411 62.5781 39.1056L119.697 32.9554C120.026 32.9199 120.357 33.0168 120.615 33.2248C120.873 33.4328 121.038 33.7348 121.073 34.0644C121.109 34.394 121.012 34.7242 120.804 34.9824C120.596 35.2405 120.294 35.4055 119.964 35.441Z" fill="#6C63FF"/>
    <path d="M70.3233 48.5046L63.667 49.2213C63.3374 49.2568 63.0072 49.1599 62.749 48.952C62.4908 48.744 62.3259 48.442 62.2904 48.1124C62.2549 47.7828 62.3518 47.4526 62.5598 47.1944C62.7677 46.9363 63.0697 46.7713 63.3993 46.7358L70.0557 46.0191C70.219 46.0013 70.3842 46.0158 70.5419 46.0619C70.6996 46.108 70.8467 46.1848 70.9747 46.2878C71.1027 46.3907 71.2091 46.5179 71.2879 46.6621C71.3667 46.8062 71.4164 46.9645 71.434 47.1279C71.4515 47.2912 71.4367 47.4564 71.3904 47.614C71.3441 47.7717 71.2672 47.9186 71.164 48.0465C71.0609 48.1744 70.9335 48.2806 70.7893 48.3592C70.645 48.4379 70.4867 48.4873 70.3233 48.5046Z" fill="#6C63FF"/>
    <path d="M37.7959 28.5166C39.0385 28.5166 40.0459 27.5092 40.0459 26.2666C40.0459 25.024 39.0385 24.0166 37.7959 24.0166C36.5533 24.0166 35.5459 25.024 35.5459 26.2666C35.5459 27.5092 36.5533 28.5166 37.7959 28.5166Z" fill="#3F3D56"/>
    <path d="M138.483 17.2666C139.726 17.2666 140.733 16.2592 140.733 15.0166C140.733 13.774 139.726 12.7666 138.483 12.7666C137.241 12.7666 136.233 13.774 136.233 15.0166C136.233 16.2592 137.241 17.2666 138.483 17.2666Z" fill="#3F3D56"/>
    <path d="M108.064 63.4586C107.857 63.277 107.693 63.0517 107.584 62.7989C107.476 62.5461 107.425 62.2723 107.435 61.9973C107.548 58.7292 107.01 55.4713 105.851 52.4133C105.753 52.1562 105.714 51.8805 105.735 51.6061C105.757 51.3318 105.84 51.0658 105.977 50.8273C106.109 50.5982 106.289 50.4007 106.505 50.2486C106.721 50.0965 106.968 49.9936 107.228 49.9471C109.843 48.3689 112.524 47.9259 115.198 48.6305C115.629 48.567 116.069 48.6593 116.438 48.8908C116.808 49.1223 117.082 49.4778 117.213 49.8936C118.295 53.4081 118.898 57.0529 119.003 60.7288C119.013 61.1698 118.864 61.5996 118.582 61.9393C118.301 62.279 117.906 62.5058 117.471 62.5781L109.559 63.8853C109.294 63.9297 109.022 63.9144 108.763 63.8406C108.505 63.7668 108.266 63.6363 108.064 63.4586Z" fill="#6C63FF"/>
    <path d="M108.767 53.9366L115.427 52.8363C115.482 52.8274 115.534 52.8078 115.581 52.7785C115.628 52.7493 115.669 52.7111 115.702 52.666C115.734 52.6209 115.757 52.5699 115.77 52.5159C115.782 52.4619 115.784 52.4059 115.775 52.3512C115.766 52.2964 115.746 52.244 115.717 52.1969C115.688 52.1498 115.649 52.109 115.604 52.0767C115.559 52.0444 115.508 52.0214 115.454 52.0089C115.4 51.9964 115.344 51.9947 115.289 52.0038L108.629 53.1041C108.519 53.1226 108.421 53.184 108.356 53.2749C108.291 53.3658 108.265 53.4787 108.283 53.5889C108.301 53.6992 108.362 53.7977 108.453 53.8628C108.544 53.928 108.657 53.9545 108.767 53.9366Z" fill="white"/>
    <path d="M109.317 57.2665L115.977 56.1662C116.087 56.148 116.186 56.0867 116.251 55.9957C116.316 55.9047 116.342 55.7916 116.324 55.6812C116.306 55.5708 116.244 55.4722 116.153 55.4071C116.062 55.3419 115.949 55.3155 115.839 55.3338L109.179 56.434C109.124 56.4429 109.072 56.4626 109.025 56.4918C108.978 56.521 108.937 56.5593 108.904 56.6043C108.872 56.6494 108.849 56.7004 108.836 56.7544C108.824 56.8084 108.822 56.8644 108.831 56.9192C108.84 56.9739 108.86 57.0263 108.889 57.0734C108.918 57.1205 108.957 57.1614 109.002 57.1936C109.047 57.2259 109.098 57.2489 109.152 57.2614C109.206 57.2739 109.262 57.2757 109.317 57.2665Z" fill="white"/>
    <path d="M109.868 60.5975L116.527 59.4973C116.638 59.479 116.736 59.4177 116.801 59.3268C116.867 59.2358 116.893 59.1227 116.875 59.0123C116.857 58.9019 116.795 58.8033 116.704 58.7381C116.613 58.6729 116.5 58.6466 116.39 58.6648L109.73 59.7651C109.675 59.7741 109.623 59.7938 109.576 59.8231C109.529 59.8523 109.488 59.8906 109.456 59.9356C109.424 59.9806 109.401 60.0316 109.388 60.0855C109.375 60.1395 109.374 60.1954 109.383 60.2501C109.392 60.3047 109.411 60.3571 109.441 60.4041C109.47 60.4512 109.508 60.492 109.553 60.5243C109.598 60.5565 109.649 60.5796 109.703 60.5922C109.757 60.6047 109.813 60.6066 109.868 60.5975Z" fill="white"/>
  </g>
  <defs>
    <clipPath id="clip0_1833_9978">
      <rect width="205.615" height="177.079" fill="white" transform="translate(0.384766)"/>
    </clipPath>
  </defs>
</svg>