<svg xmlns="http://www.w3.org/2000/svg" width="16" height="17" viewBox="0 0 16 17" fill="none">
  <mask id="path-1-inside-1_1891_3298" fill="white">
    <path d="M9.2942 7.0071L14.3572 1.0791H13.1572L8.7622 6.2261L5.2502 1.0791H1.2002L6.5102 8.8631L1.2002 15.0791H2.4002L7.0422 9.6431L10.7512 15.0791H14.8012L9.2942 7.0071ZM7.6512 8.9311L7.1132 8.1561L2.8322 1.9891H4.6752L8.1292 6.9661L8.6672 7.7411L13.1582 14.2111H11.3152L7.6512 8.9311Z"/>
  </mask>
  <path d="M9.2942 7.0071L8.53379 6.35765L8.03722 6.93906L8.46813 7.57067L9.2942 7.0071ZM14.3572 1.0791L15.1176 1.72855L16.5264 0.0791016H14.3572V1.0791ZM13.1572 1.0791V0.0791016H12.6961L12.3967 0.429735L13.1572 1.0791ZM8.7622 6.2261L7.93617 6.78973L8.67335 7.87011L9.52267 6.87547L8.7622 6.2261ZM5.2502 1.0791L6.07622 0.515471L5.77847 0.0791016H5.2502V1.0791ZM1.2002 1.0791V0.0791016H-0.692491L0.374103 1.64264L1.2002 1.0791ZM6.5102 8.8631L7.27054 9.51262L7.76719 8.93123L7.33629 8.29957L6.5102 8.8631ZM1.2002 15.0791L0.439852 14.4296L-0.969247 16.0791H1.2002V15.0791ZM2.4002 15.0791V16.0791H2.86125L3.16066 15.7285L2.4002 15.0791ZM7.0422 9.6431L7.86824 9.07949L7.13108 7.9991L6.28174 8.99372L7.0422 9.6431ZM10.7512 15.0791L9.92515 15.6427L10.2229 16.0791H10.7512V15.0791ZM14.8012 15.0791V16.0791H16.694L15.6273 14.5155L14.8012 15.0791ZM7.6512 8.9311L8.47276 8.36099L8.47266 8.36085L7.6512 8.9311ZM7.1132 8.1561L6.29172 8.72635L6.29173 8.72636L7.1132 8.1561ZM2.8322 1.9891V0.989102H0.92069L2.01072 2.55935L2.8322 1.9891ZM4.6752 1.9891L5.49674 1.41896L5.19842 0.989102H4.6752V1.9891ZM8.1292 6.9661L7.30765 7.53625L7.30773 7.53636L8.1292 6.9661ZM8.6672 7.7411L9.48869 7.17088L9.48866 7.17085L8.6672 7.7411ZM13.1582 14.2111V15.2111H15.0696L13.9797 13.6409L13.1582 14.2111ZM11.3152 14.2111L10.4936 14.7812L10.7919 15.2111H11.3152V14.2111ZM10.0546 7.65655L15.1176 1.72855L13.5968 0.429653L8.53379 6.35765L10.0546 7.65655ZM14.3572 0.0791016H13.1572V2.0791H14.3572V0.0791016ZM12.3967 0.429735L8.00172 5.57674L9.52267 6.87547L13.9177 1.72847L12.3967 0.429735ZM9.58822 5.66247L6.07622 0.515471L4.42417 1.64273L7.93617 6.78973L9.58822 5.66247ZM5.2502 0.0791016H1.2002V2.0791H5.2502V0.0791016ZM0.374103 1.64264L5.6841 9.42664L7.33629 8.29957L2.02629 0.515567L0.374103 1.64264ZM5.74985 8.21358L0.439852 14.4296L1.96054 15.7286L7.27054 9.51262L5.74985 8.21358ZM1.2002 16.0791H2.4002V14.0791H1.2002V16.0791ZM3.16066 15.7285L7.80266 10.2925L6.28174 8.99372L1.63974 14.4297L3.16066 15.7285ZM6.21615 10.2067L9.92515 15.6427L11.5772 14.5155L7.86824 9.07949L6.21615 10.2067ZM10.7512 16.0791H14.8012V14.0791H10.7512V16.0791ZM15.6273 14.5155L10.1203 6.44353L8.46813 7.57067L13.9751 15.6427L15.6273 14.5155ZM8.47266 8.36085L7.93466 7.58584L6.29173 8.72636L6.82973 9.50136L8.47266 8.36085ZM7.93467 7.58585L3.65367 1.41885L2.01072 2.55935L6.29172 8.72635L7.93467 7.58585ZM2.8322 2.9891H4.6752V0.989102H2.8322V2.9891ZM3.85365 2.55925L7.30765 7.53625L8.95074 6.39596L5.49674 1.41896L3.85365 2.55925ZM7.30773 7.53636L7.84573 8.31136L9.48866 7.17085L8.95066 6.39584L7.30773 7.53636ZM7.8457 8.31132L12.3367 14.7813L13.9797 13.6409L9.48869 7.17088L7.8457 8.31132ZM13.1582 13.2111H11.3152V15.2111H13.1582V13.2111ZM12.1368 13.641L8.47276 8.36099L6.82963 9.50122L10.4936 14.7812L12.1368 13.641Z" fill="#6E6E6E" mask="url(#path-1-inside-1_1891_3298)"/>
</svg>